<?xml version="1.0" encoding="utf-8"?>
<!-- Generator: Adobe Illustrator 14.0.0, SVG Export Plug-In . SVG Version: 6.00 Build 43363)  -->
<!DOCTYPE svg PUBLIC "-//W3C//DTD SVG 1.1//EN" "http://www.w3.org/Graphics/SVG/1.1/DTD/svg11.dtd">
<svg version="1.1" id="Layer_2" xmlns="http://www.w3.org/2000/svg" xmlns:xlink="http://www.w3.org/1999/xlink" x="0px" y="0px"
	 width="2545.373px" height="566.972px" viewBox="214.095 56.607 2545.373 566.972"
	 enable-background="new 214.095 56.607 2545.373 566.972" xml:space="preserve">
<path fill="#FEBF50" stroke="#000000" stroke-width="30" d="M666.871,176.315c-39.572-77.21-207.486-95.264-207.486-95.264
	c-0.031,0-0.049,0-0.062,0c-0.024,0-0.055,0-0.055,0c-86.813,0.006-167.921,18.054-207.505,95.264
	c-39.578,77.253,40.563,217.267,58.898,250.094c18.342,32.804,100.313,163.955,148.6,164.139l0,0c0.02,0,0.031,0,0.056,0
	c0.013,0,0.03,0,0.062,0l0,0c48.286-0.184,130.258-131.335,148.593-164.133C626.32,393.576,706.455,253.568,666.871,176.315z"/>
<g>
	<path fill="#FEBF50" d="M653.416,513.031c-1.465,0.168-2.365-0.404-2.686-1.709c2.273-2.602,3.662-6.104,4.15-10.498
		s0.244-9.033-0.732-13.916s-2.609-9.766-4.883-14.648c-2.281-4.883-5.211-9.109-8.789-12.695
		c-8.789-0.977-15.793-1.785-20.996-2.441c-5.211-0.648-10.094-1.381-14.648-2.197c-4.563-0.809-9.689-1.953-15.381-3.418
		c-5.699-1.465-13.596-3.334-23.682-5.615c-10.094-2.273-17.99-4.227-23.682-5.859c-5.699-1.625-10.91-3.662-15.625-6.104
		c-4.723-2.441-9.766-5.447-15.137-9.033c-5.371-3.578-12.939-8.301-22.705-14.16c0.648-1.953,0.244-2.93-1.221-2.93
		s-2.197-0.648-2.197-1.953c13.016-5.531,27.504-10.658,43.457-15.381c15.945-4.715,31.006-10.414,45.166-17.09
		c14.16-6.668,26.199-15.297,36.133-25.879c9.926-10.574,15.541-24.49,16.846-41.748c0-2.602-0.168-4.799-0.488-6.592
		c-0.328-1.785-0.732-3.418-1.221-4.883s-0.816-2.93-0.977-4.395c-0.168-1.465,0.076-3.174,0.732-5.127
		c-2.93-5.531-5.539-11.551-7.813-18.066c-2.281-6.508-4.639-12.939-7.08-19.287s-5.211-12.367-8.301-18.066
		c-3.098-5.691-6.92-10.658-11.475-14.893v-7.324c-2.609-1.625-5.127-3.334-7.568-5.127c-2.441-1.785-4.967-3.494-7.568-5.127
		c-6.188-9.438-14.16-17.334-23.926-23.682s-18.555-12.283-26.367-17.822c-14.977,1.633-27.512,6.516-37.598,14.648
		c-10.094,8.141-19.127,17.502-27.1,28.076c-7.98,10.582-15.869,21.408-23.682,32.471c-7.813,11.07-16.77,20.508-26.855,28.32
		c-1.633-2.602-4.967-4.799-10.01-6.592c-5.051-1.785-9.85-2.357-14.404-1.709c-3.906,8.789-7.08,18.15-9.521,28.076
		c-2.441,9.934-4.639,20.188-6.592,30.762c-1.953,10.582-4.15,21.24-6.592,31.982s-5.783,21.164-10.01,31.25
		c0.32,1.953,0.564,4.479,0.732,7.568c0.16,3.098,0,6.027-0.488,8.789c-0.488,2.77-1.145,5.051-1.953,6.836
		c-0.816,1.793-2.037,2.197-3.662,1.221c2.273,5.859,2.846,11.475,1.709,16.846c-1.145,5.371-2.525,10.91-4.15,16.602
		c-0.556,1.939-1.071,3.905-1.569,5.882c5.66,6.144,10.206,12.987,14.125,20.233c0.899,0.357,1.759,1.014,2.48,2.033
		c6.736,9.525,11.818,20.361,17.133,31.029c3.747,3.001,7.574,6.269,11.169,9.81c6.854,0.713,13.559,2.484,20.277,4.193
		c2.123-3.673,3.961-7.315,5.477-10.925c3.418-8.133,5.936-18.715,7.568-31.738c0.977-0.32,1.541-0.977,1.709-1.953
		c0.16-0.977,0.732-1.625,1.709-1.953c7.156,6.516,13.504,12.131,19.043,16.846c5.531,4.723,11.551,9.117,18.066,13.184
		c6.508,4.074,14.16,8.225,22.949,12.451c8.789,4.234,20.18,8.957,34.18,14.16c28.32,10.742,51.59,18.227,69.824,22.461
		c18.227,4.227,33.203,4.066,44.922-0.488c3.25-0.328,5.936-1.465,8.057-3.418c2.113-1.953,3.982-4.074,5.615-6.348
		c1.625-2.281,3.25-4.555,4.883-6.836c1.625-2.273,3.578-4.227,5.859-5.859C656.422,512.955,654.881,512.871,653.416,513.031z
		 M457.371,329.193c1.625-8.789,4.395-16.357,8.301-22.705s8.377-12.207,13.428-17.578c5.043-5.371,10.17-10.574,15.381-15.625
		c5.203-5.043,9.926-10.658,14.16-16.846c7.484,2.609,14.648,7.568,21.484,14.893s11.063,17.014,12.695,29.053
		c-13.352,5.539-27.512,11.314-42.48,17.334C485.363,323.746,471.043,327.568,457.371,329.193z"/>
</g>
<path fill="#FEBF50" d="M808.373,479.312c1.625,9.766,1.053,17.418-1.709,22.949c-2.77,5.539-6.676,9.689-11.719,12.451
	c-5.051,2.762-10.826,4.311-17.334,4.639c-6.516,0.32-12.695,0-18.555-0.977c-3.258-4.563-6.188-10.254-8.789-17.09
	c-2.609-6.836-5.051-13.916-7.324-21.24c-2.281-7.324-4.318-14.564-6.104-21.729c-1.793-7.156-3.342-13.504-4.639-19.043
	c1.625-3.906,2.686-8.377,3.174-13.428c0.488-5.043,0.809-10.17,0.977-15.381c0.16-5.203,0.32-10.498,0.488-15.869
	c0.16-5.371,0.564-10.498,1.221-15.381c2.273-13.672,5.615-26.688,10.01-39.063c4.395-12.367,7.889-25.223,10.498-38.574
	c0.648-2.93,0.404-5.691-0.732-8.301c-1.145-2.602-1.389-5.043-0.732-7.324c0.32-1.297,1.297-2.197,2.93-2.686
	c1.625-0.488,2.602-1.541,2.93-3.174c0.977-3.578,1.221-6.508,0.732-8.789c-0.488-2.273,0.076-5.043,1.709-8.301
	c1.625-2.602,3.662-6.424,6.104-11.475c2.441-5.043,3.334-10.33,2.686-15.869c2.93-1.953,5.691-4.227,8.301-6.836
	c2.602-2.602,5.287-4.959,8.057-7.08c2.762-2.113,5.859-3.982,9.277-5.615c3.418-1.625,7.568-2.441,12.451-2.441
	c2.602,3.258,4.311,6.836,5.127,10.742c0.809,3.906,1.625,7.813,2.441,11.719c0.809,3.906,2.029,7.568,3.662,10.986
	c1.625,3.418,4.395,6.104,8.301,8.057c0,2.609,0,5.859,0,9.766s0.16,7.736,0.488,11.475c0.32,3.746,1.053,7.164,2.197,10.254
	c1.137,3.098,3.006,5.127,5.615,6.104c-5.859,15.625-11.314,31.09-16.357,46.387c-5.051,15.305-9.201,30.686-12.451,46.143
	c-3.258,15.465-5.295,31.006-6.104,46.631C804.383,447.573,805.443,463.366,808.373,479.312z"/>
<path fill="#FEBF50" d="M933.373,496.89c-1.953,11.07-7.492,18.715-16.602,22.949c-4.234,0.32-7.408,0.16-9.521-0.488
	c-2.121-0.656-4.318-1.465-6.592-2.441c-2.93-1.305-5.539-2.121-7.813-2.441l-5.371-3.906c-0.656-1.625-1.465-3.25-2.441-4.883
	c-0.977-1.625-2.121-3.25-3.418-4.883c-2.609-3.25-5.211-7.324-7.813-12.207c-1.953-9.438-2.281-17.334-0.977-23.682
	c1.297-6.348,2.93-12.611,4.883-18.799c0.648-1.953,1.297-3.982,1.953-6.104c0.648-2.113,1.297-4.15,1.953-6.104
	c-8.469-4.555-14.816-11.063-19.043-19.531c-4.227-8.461-6.668-16.602-7.324-24.414c0.977-6.18,2.77-11.146,5.371-14.893
	c2.609-3.738,5.615-6.752,9.033-9.033c3.418-2.273,6.996-4.066,10.742-5.371c3.738-1.297,7.4-2.441,10.986-3.418l6.348,2.441
	c2.93,2.93,5.859,5.211,8.789,6.836c2.273-0.977,3.822-2.518,4.639-4.639c0.809-2.113,1.541-4.471,2.197-7.08
	c0.977-2.93,2.029-5.859,3.174-8.789c1.137-2.93,2.518-5.859,4.15-8.789c-0.328-4.227,0.32-8.133,1.953-11.719
	c-2.281-1.625-4.723-2.602-7.324-2.93c-0.656,0-2.281-0.32-4.883-0.977c-3.906-2.93-6.592-5.447-8.057-7.568
	c-1.465-2.113-2.854-4.15-4.15-6.104c-1.953-4.227-4.395-7.645-7.324-10.254l-4.883-3.418l2.441-4.883
	c0.648-0.648,0.977-1.465,0.977-2.441s-0.656-2.441-1.953-4.395c-0.656-3.578-0.656-6.02,0-7.324l0.977-4.883
	c2.602-3.578,3.906-5.531,3.906-5.859l4.395-4.395c6.508-1.625,12.939-3.494,19.287-5.615c6.348-2.113,12.771-4.311,19.287-6.592
	c6.18-1.953,12.451-3.982,18.799-6.104c6.348-2.113,12.771-3.982,19.287-5.615c2.273-1.625,4.715-2.686,7.324-3.174
	c2.602-0.488,5.043-0.893,7.324-1.221c1.953-0.32,3.738-0.564,5.371-0.732c1.625-0.16,2.762-0.732,3.418-1.709
	c3.906-1.297,8.461-2.762,13.672-4.395c8.133-2.273,18.875-4.799,32.227-7.568c13.344-2.762,28.32-4.959,44.922-6.592l8.301-0.488
	c1.625,0.328,3.25,0.412,4.883,0.244c1.625-0.16,3.25-0.244,4.883-0.244c14.648,0,23.926,4.395,27.832,13.184
	c2.93,1.633,5.531,3.418,7.813,5.371c2.273,1.953,4.395,3.906,6.348,5.859c0.977,1.305,2.029,2.441,3.174,3.418
	c1.137,0.977,2.029,1.633,2.686,1.953c5.531,8.469,7.324,15.953,5.371,22.461c-2.93,4.234-6.676,6.676-11.23,7.324l-5.371,2.93
	c-3.586-0.32-6.271-0.488-8.057-0.488c-1.793,0-3.662,0-5.615,0c-8.141,0-17.578,0.488-28.32,1.465s-21.729,2.365-32.959,4.15
	c-11.23,1.793-22.057,3.99-32.471,6.592c-10.422,2.609-19.531,5.371-27.344,8.301l-8.789,4.395
	c-2.281,3.586-3.586,6.432-3.906,8.545c-0.328,2.121-0.656,4.15-0.977,6.104c-0.328,1.305-0.572,2.609-0.732,3.906
	c-0.168,1.305-0.412,2.77-0.732,4.395c-5.539,6.836-8.301,14.977-8.301,24.414c-2.281,3.906-3.746,6.76-4.395,8.545
	c-0.656,1.793-0.656,3.99,0,6.592c6.18,2.609,12.039,3.586,17.578,2.93c5.531-0.648,11.063-1.465,16.602-2.441
	c7.484-1.297,15.213-2.441,23.193-3.418c7.973-0.977,16.189-1.465,24.658-1.465h15.625l-3.906,3.906l2.441,6.836
	c1.953,0.977,3.334,1.633,4.15,1.953c0.809,0.328,1.709,0.816,2.686,1.465l2.441,4.395c1.297,0.656,2.518,1.793,3.662,3.418
	c1.137,1.633,1.869,4.074,2.197,7.324l-20.02,28.32l-6.836,1.953c-5.539-0.32-10.422,0.328-14.648,1.953
	c-2.281,0.656-4.563,1.221-6.836,1.709c-2.281,0.488-4.723,0.732-7.324,0.732c-6.516,1.305-11.963,2.281-16.357,2.93
	c-4.395,0.656-8.873,1.305-13.428,1.953c-5.859,0.656-11.559,1.549-17.09,2.686c-5.539,1.145-10.742,2.686-15.625,4.639
	c-3.258,0-5.539,0-6.836,0c-2.609,0-5.295,0.412-8.057,1.221c-2.77,0.816-5.295,1.549-7.568,2.197
	c-1.633,1.305-2.77,2.686-3.418,4.15c-0.656,1.465-1.305,3.014-1.953,4.639c-1.305,4.563-3.098,8.301-5.371,11.23v7.324
	c-2.609,3.258-4.15,5.783-4.639,7.568c-0.488,1.793-1.061,3.502-1.709,5.127c-0.656,0.977-1.145,1.877-1.465,2.686
	c-0.328,0.816-0.488,1.709-0.488,2.686C934.021,485.171,934.67,490.71,933.373,496.89z"/>
<path fill="#FEBF50" d="M1160.912,496.89c-1.953,11.07-7.492,18.715-16.602,22.949c-4.234,0.32-7.408,0.16-9.521-0.488
	c-2.121-0.656-4.318-1.465-6.592-2.441c-2.93-1.305-5.539-2.121-7.813-2.441l-5.371-3.906c-0.656-1.625-1.465-3.25-2.441-4.883
	c-0.977-1.625-2.121-3.25-3.418-4.883c-2.609-3.25-5.211-7.324-7.813-12.207c-1.953-9.438-2.281-17.334-0.977-23.682
	c1.297-6.348,2.93-12.611,4.883-18.799c0.648-1.953,1.297-3.982,1.953-6.104c0.648-2.113,1.297-4.15,1.953-6.104
	c-8.469-4.555-14.816-11.063-19.043-19.531c-4.227-8.461-6.668-16.602-7.324-24.414c0.977-6.18,2.77-11.146,5.371-14.893
	c2.609-3.738,5.615-6.752,9.033-9.033c3.418-2.273,6.996-4.066,10.742-5.371c3.738-1.297,7.4-2.441,10.986-3.418l6.348,2.441
	c2.93,2.93,5.859,5.211,8.789,6.836c2.273-0.977,3.822-2.518,4.639-4.639c0.809-2.113,1.541-4.471,2.197-7.08
	c0.977-2.93,2.029-5.859,3.174-8.789c1.137-2.93,2.518-5.859,4.15-8.789c-0.328-4.227,0.32-8.133,1.953-11.719
	c-2.281-1.625-4.723-2.602-7.324-2.93c-0.656,0-2.281-0.32-4.883-0.977c-3.906-2.93-6.592-5.447-8.057-7.568
	c-1.465-2.113-2.854-4.15-4.15-6.104c-1.953-4.227-4.395-7.645-7.324-10.254l-4.883-3.418l2.441-4.883
	c0.648-0.648,0.977-1.465,0.977-2.441s-0.656-2.441-1.953-4.395c-0.656-3.578-0.656-6.02,0-7.324l0.977-4.883
	c2.602-3.578,3.906-5.531,3.906-5.859l4.395-4.395c6.508-1.625,12.939-3.494,19.287-5.615c6.348-2.113,12.771-4.311,19.287-6.592
	c6.18-1.953,12.451-3.982,18.799-6.104c6.348-2.113,12.771-3.982,19.287-5.615c2.273-1.625,4.715-2.686,7.324-3.174
	c2.602-0.488,5.043-0.893,7.324-1.221c1.953-0.32,3.738-0.564,5.371-0.732c1.625-0.16,2.762-0.732,3.418-1.709
	c3.906-1.297,8.461-2.762,13.672-4.395c8.133-2.273,18.875-4.799,32.227-7.568c13.344-2.762,28.32-4.959,44.922-6.592l8.301-0.488
	c1.625,0.328,3.25,0.412,4.883,0.244c1.625-0.16,3.25-0.244,4.883-0.244c14.648,0,23.926,4.395,27.832,13.184
	c2.93,1.633,5.531,3.418,7.813,5.371c2.273,1.953,4.395,3.906,6.348,5.859c0.977,1.305,2.029,2.441,3.174,3.418
	c1.137,0.977,2.029,1.633,2.686,1.953c5.531,8.469,7.324,15.953,5.371,22.461c-2.93,4.234-6.676,6.676-11.23,7.324l-5.371,2.93
	c-3.586-0.32-6.271-0.488-8.057-0.488c-1.793,0-3.662,0-5.615,0c-8.141,0-17.578,0.488-28.32,1.465s-21.729,2.365-32.959,4.15
	c-11.23,1.793-22.057,3.99-32.471,6.592c-10.422,2.609-19.531,5.371-27.344,8.301l-8.789,4.395
	c-2.281,3.586-3.586,6.432-3.906,8.545c-0.328,2.121-0.656,4.15-0.977,6.104c-0.328,1.305-0.572,2.609-0.732,3.906
	c-0.168,1.305-0.412,2.77-0.732,4.395c-5.539,6.836-8.301,14.977-8.301,24.414c-2.281,3.906-3.746,6.76-4.395,8.545
	c-0.656,1.793-0.656,3.99,0,6.592c6.18,2.609,12.039,3.586,17.578,2.93c5.531-0.648,11.063-1.465,16.602-2.441
	c7.484-1.297,15.213-2.441,23.193-3.418c7.973-0.977,16.189-1.465,24.658-1.465h15.625l-3.906,3.906l2.441,6.836
	c1.953,0.977,3.334,1.633,4.15,1.953c0.809,0.328,1.709,0.816,2.686,1.465l2.441,4.395c1.297,0.656,2.518,1.793,3.662,3.418
	c1.137,1.633,1.869,4.074,2.197,7.324l-20.02,28.32l-6.836,1.953c-5.539-0.32-10.422,0.328-14.648,1.953
	c-2.281,0.656-4.563,1.221-6.836,1.709c-2.281,0.488-4.723,0.732-7.324,0.732c-6.516,1.305-11.963,2.281-16.357,2.93
	c-4.395,0.656-8.873,1.305-13.428,1.953c-5.859,0.656-11.559,1.549-17.09,2.686c-5.539,1.145-10.742,2.686-15.625,4.639
	c-3.258,0-5.539,0-6.836,0c-2.609,0-5.295,0.412-8.057,1.221c-2.77,0.816-5.295,1.549-7.568,2.197
	c-1.633,1.305-2.77,2.686-3.418,4.15c-0.656,1.465-1.305,3.014-1.953,4.639c-1.305,4.563-3.098,8.301-5.371,11.23v7.324
	c-2.609,3.258-4.15,5.783-4.639,7.568c-0.488,1.793-1.061,3.502-1.709,5.127c-0.656,0.977-1.145,1.877-1.465,2.686
	c-0.328,0.816-0.488,1.709-0.488,2.686C1161.561,485.171,1162.209,490.71,1160.912,496.89z"/>
<path fill="#FEBF50" d="M1448.998,508.12c-9.117,2.93-19.043,5.859-29.785,8.789s-21.484,4.395-32.227,4.395
	c-16.281,0-29.137-4.074-38.574-12.207c-1.633-3.578-3.098-6.02-4.395-7.324c-0.977-1.297-1.877-2.686-2.686-4.15
	c-0.816-1.465-1.389-3.494-1.709-6.104c-3.906-4.555-7.004-9.842-9.277-15.869c-2.281-6.02-3.83-12.207-4.639-18.555
	c-0.816-6.348-0.977-12.771-0.488-19.287c0.488-6.508,1.541-12.695,3.174-18.555c0.648-1.297,1.053-2.602,1.221-3.906
	c0.16-1.297,0.404-2.762,0.732-4.395c1.297-5.203,2.686-10.254,4.15-15.137s3.494-9.109,6.104-12.695
	c-1.305-2.93-1.305-6.18,0-9.766c1.297-3.578,2.762-6.836,4.395-9.766c4.555-12.367,8.377-22.865,11.475-31.494
	c3.09-8.621,6.264-17.166,9.521-25.635c5.531-14.648,10.742-29.129,15.625-43.457c4.883-14.32,9.277-29.785,13.184-46.387
	c2.602-1.625,4.555-2.762,5.859-3.418c1.953-0.648,3.578-1.137,4.883-1.465c5.859,2.93,12.695,5.783,20.508,8.545
	c7.813,2.77,14.32,4.15,19.531,4.15c2.602,1.633,4.227,2.854,4.883,3.662c0.648,0.816,1.297,1.549,1.953,2.197
	c3.578,4.234,6.668,8.545,9.277,12.939c2.602,4.395,3.418,10.178,2.441,17.334c-1.953,2.93-3.418,4.395-4.395,4.395
	c-1.633,6.516-3.342,12.047-5.127,16.602c-1.793,4.563-3.662,9.117-5.615,13.672c-2.281,4.883-4.395,9.766-6.348,14.648
	s-3.586,10.91-4.883,18.066c-1.305,1.633-2.197,3.098-2.686,4.395c-0.488,1.305-1.061,2.77-1.709,4.395
	c-0.656,1.633-1.389,3.342-2.197,5.127c-0.816,1.793-2.037,3.342-3.662,4.639c-0.977,8.469-2.525,15.305-4.639,20.508
	c-2.121,5.211-4.318,10.422-6.592,15.625c-3.906,9.445-7.408,18.883-10.498,28.32c-3.098,9.445-4.967,20.188-5.615,32.227
	c1.625-0.648,3.174-0.977,4.639-0.977s2.846,0,4.15,0c2.93,0,6.348,0.488,10.254,1.465c9.766-5.203,20.424-8.301,31.982-9.277
	c11.551-0.977,23.025-1.625,34.424-1.953c4.555,0,9.109,0,13.672,0c4.555,0,8.789-0.32,12.695-0.977
	c2.93,1.633,4.799,2.525,5.615,2.686c0.809,0.168,2.029,0.244,3.662,0.244c2.273,0,4.227,0.168,5.859,0.488
	c3.906,3.586,7.645,6.188,11.23,7.813c3.578,1.633,7.324,3.098,11.23,4.395c3.578,1.305,7.08,2.686,10.498,4.15
	s6.752,3.502,10.01,6.104l3.418,20.996c2.273,2.93,3.25,4.883,2.93,5.859c0,2.609-0.656,4.563-1.953,5.859l0.977,5.371
	c-4.883,0.977-8.225,2.121-10.01,3.418c-1.793,1.305-3.502,2.77-5.127,4.395c-2.609,0.328-4.479,0.488-5.615,0.488
	c-1.145,0-2.197,0-3.174,0c-4.563,0-10.094,0.816-16.602,2.441c-8.789-2.93-17.906-4.395-27.344-4.395
	c-3.586,0-7.324,0.168-11.23,0.488c-3.906,0.328-7.813,0.656-11.719,0.977c-3.906,0.656-7.896,1.145-11.963,1.465
	c-4.074,0.328-8.225,0.488-12.451,0.488L1448.998,508.12z"/>
<path fill="#FEBF50" d="M1690.209,479.312c1.625,9.766,1.053,17.418-1.709,22.949c-2.77,5.539-6.676,9.689-11.719,12.451
	c-5.051,2.762-10.826,4.311-17.334,4.639c-6.516,0.32-12.695,0-18.555-0.977c-3.258-4.563-6.188-10.254-8.789-17.09
	c-2.609-6.836-5.051-13.916-7.324-21.24c-2.281-7.324-4.318-14.564-6.104-21.729c-1.793-7.156-3.342-13.504-4.639-19.043
	c1.625-3.906,2.686-8.377,3.174-13.428c0.488-5.043,0.809-10.17,0.977-15.381c0.16-5.203,0.32-10.498,0.488-15.869
	c0.16-5.371,0.564-10.498,1.221-15.381c2.273-13.672,5.615-26.688,10.01-39.063c4.395-12.367,7.889-25.223,10.498-38.574
	c0.648-2.93,0.404-5.691-0.732-8.301c-1.145-2.602-1.389-5.043-0.732-7.324c0.32-1.297,1.297-2.197,2.93-2.686
	c1.625-0.488,2.602-1.541,2.93-3.174c0.977-3.578,1.221-6.508,0.732-8.789c-0.488-2.273,0.076-5.043,1.709-8.301
	c1.625-2.602,3.662-6.424,6.104-11.475c2.441-5.043,3.334-10.33,2.686-15.869c2.93-1.953,5.691-4.227,8.301-6.836
	c2.602-2.602,5.287-4.959,8.057-7.08c2.762-2.113,5.859-3.982,9.277-5.615c3.418-1.625,7.568-2.441,12.451-2.441
	c2.602,3.258,4.311,6.836,5.127,10.742c0.809,3.906,1.625,7.813,2.441,11.719c0.809,3.906,2.029,7.568,3.662,10.986
	c1.625,3.418,4.395,6.104,8.301,8.057c0,2.609,0,5.859,0,9.766s0.16,7.736,0.488,11.475c0.32,3.746,1.053,7.164,2.197,10.254
	c1.137,3.098,3.006,5.127,5.615,6.104c-5.859,15.625-11.314,31.09-16.357,46.387c-5.051,15.305-9.201,30.686-12.451,46.143
	c-3.258,15.465-5.295,31.006-6.104,46.631C1686.219,447.573,1687.279,463.366,1690.209,479.312z"/>
<path fill="#FEBF50" d="M1754.662,293.765c2.273-6.836,5.936-12.695,10.986-17.578c5.043-4.883,10.574-9.033,16.602-12.451
	c6.02-3.418,12.283-6.264,18.799-8.545c6.508-2.273,12.695-4.227,18.555-5.859c13.016-5.531,26.932-10.818,41.748-15.869
	c14.809-5.043,29.945-9.521,45.41-13.428c15.457-3.906,31.326-6.424,47.607-7.568c16.273-1.137,33.363,0.9,51.27,6.104
	c0.977,3.258,2.441,6.348,4.395,9.277s3.982,5.859,6.104,8.789c2.113,2.93,3.982,5.783,5.615,8.545
	c1.625,2.77,2.602,5.615,2.93,8.545c3.25,2.93,5.859,6.104,7.813,9.521s2.273,7.896,0.977,13.428
	c-3.258,2.609-6.432,4.967-9.521,7.08c-3.098,2.121-6.432,3.99-10.01,5.615c-12.047-2.93-24.254-3.906-36.621-2.93
	c-12.375,0.977-23.438,1.793-33.203,2.441c-2.93-2.93-6.432-4.395-10.498-4.395c-4.074,0-8.301,0.656-12.695,1.953
	c-4.395,1.305-8.789,2.609-13.184,3.906c-4.395,1.305-8.545,1.633-12.451,0.977c-3.258,2.609-7.248,4.318-11.963,5.127
	c-4.723,0.816-9.85,1.549-15.381,2.197c-0.328,1.633,0,2.686,0.977,3.174s1.137,1.549,0.488,3.174
	c1.953,2.281,4.471,3.906,7.568,4.883c3.09,0.977,6.348,1.953,9.766,2.93s6.424,2.197,9.033,3.662
	c2.602,1.465,4.395,3.83,5.371,7.08c4.883,0,9.109,1.145,12.695,3.418c3.578,2.281,6.508,5.051,8.789,8.301
	c2.273,3.258,3.982,6.76,5.127,10.498c1.137,3.746,1.709,7.08,1.709,10.01c0.977,2.609,2.113,3.746,3.418,3.418
	c1.297-0.32,2.762,0.328,4.395,1.953c0.977,4.234,3.418,8.545,7.324,12.939s6.996,9.201,9.277,14.404
	c0.648,8.141,1.137,15.381,1.465,21.729c0.32,6.348-0.816,12.779-3.418,19.287c-4.883,12.047-11.643,22.789-20.264,32.227
	c-8.629,9.445-18.395,17.822-29.297,25.146c-10.91,7.324-22.545,13.596-34.912,18.799c-12.375,5.211-24.414,9.598-36.133,13.184
	c-1.305-0.328-2.609-0.328-3.906,0c-1.305,0.32-1.633-0.488-0.977-2.441c-2.609,2.273-5.455,3.738-8.545,4.395
	c-3.098,0.648-6.432,0.893-10.01,0.732c-3.586-0.168-7.248-0.412-10.986-0.732c-3.746-0.328-7.248-0.168-10.498,0.488
	c-2.281-2.281-4.318-4.479-6.104-6.592c-1.793-2.113-3.174-4.799-4.15-8.057c-1.633,0-2.365-0.809-2.197-2.441
	c0.16-1.625-0.412-2.441-1.709-2.441c1.953-3.25,2.846-5.127,2.686-5.615c-0.168-0.488-0.656-0.893-1.465-1.221
	c-0.816-0.32-1.549-0.732-2.197-1.221c-0.656-0.488-0.816-1.221-0.488-2.197c1.297-2.602,1.785-5.615,1.465-9.033
	c-0.328-3.418-0.656-6.912-0.977-10.498c-0.328-3.578-0.084-6.996,0.732-10.254c0.809-3.25,3.174-5.859,7.08-7.813
	c11.063,1.305,21.561,0.9,31.494-1.221c9.926-2.113,19.287-5.127,28.076-9.033s17.166-8.133,25.146-12.695
	c7.973-4.555,15.869-8.621,23.682-12.207c0.977-2.93,2.357-5.371,4.15-7.324c1.785-1.953,3.662-3.738,5.615-5.371
	c1.953-1.625,3.738-3.418,5.371-5.371c1.625-1.953,2.762-4.395,3.418-7.324c0.32-2.273-0.244-3.662-1.709-4.15
	s-2.197-1.709-2.197-3.662l-5.371-1.465c-6.188-3.578-13.184-6.592-20.996-9.033s-14.488-5.127-20.02-8.057
	c-3.586,1.953-6.92,2.441-10.01,1.465c-3.098-0.977-7.08-1.953-11.963-2.93c-11.07-0.648-21.729-1.785-31.982-3.418
	c-10.254-1.625-20.104-4.555-29.541-8.789c-0.656-1.625-1.465-3.09-2.441-4.395c-0.977-1.297-2.77-1.625-5.371-0.977
	c-1.953-2.602-3.906-5.127-5.859-7.568s-3.746-5.127-5.371-8.057c0.648-3.906,1.137-7.24,1.465-10.01
	c0.32-2.762-0.656-5.447-2.93-8.057c1.297-4.227,2.273-7.645,2.93-10.254C1755.311,301.417,1755.311,297.999,1754.662,293.765z"/>
<path fill="#FEBF50" d="M2256.615,278.628c-8.141,0-16.93,0.572-26.367,1.709c-9.445,1.145-18.723,2.365-27.832,3.662
	c-6.516,0.977-12.779,1.793-18.799,2.441c-6.027,0.656-11.475,1.145-16.357,1.465c-2.281,7.164-4.563,13.512-6.836,19.043
	c-2.281,5.539-4.723,10.91-7.324,16.113c-2.609,5.539-4.967,11.154-7.08,16.846c-2.121,5.699-4.15,11.803-6.104,18.311
	c-3.258,5.211-5.943,10.01-8.057,14.404c-2.121,4.395-3.83,9.361-5.127,14.893c-3.906,4.883-6.836,10.01-8.789,15.381
	s-3.418,10.01-4.395,13.916l-1.953,5.859c-1.953,1.953-3.098,3.502-3.418,4.639c-0.328,1.145-1.145,2.197-2.441,3.174
	c-0.328,3.586-1.465,7.164-3.418,10.742c-0.656,1.633-1.145,3.174-1.465,4.639c-0.328,1.465-0.488,2.525-0.488,3.174
	c0,3.258-0.816,5.371-2.441,6.348c0.32,1.633,0.32,3.342,0,5.127c-0.328,1.793-0.656,3.502-0.977,5.127
	c-0.977,3.906-1.305,7.004-0.977,9.277c0.977,1.305,1.869,2.441,2.686,3.418c0.809,0.977,1.381,2.281,1.709,3.906
	c1.953,1.305,3.418,2.121,4.395,2.441c1.297,0.977,3.25,2.121,5.859,3.418l4.395,4.883c1.625,9.445,0.16,16.93-4.395,22.461
	c-4.883,6.18-13.184,9.277-24.902,9.277h-5.859c-1.633-1.633-2.609-2.93-2.93-3.906c-2.609-0.977-4.723-1.793-6.348-2.441
	c-1.633-0.656-3.098-1.953-4.395-3.906c-4.234-1.953-7.652-3.578-10.254-4.883l-4.395-2.441c0-3.578,0-5.531,0-5.859
	c-2.281-2.93-3.99-6.18-5.127-9.766c-1.145-3.578-2.037-7.156-2.686-10.742c-0.656-2.93-1.389-5.691-2.197-8.301
	c-0.816-2.602-1.877-4.883-3.174-6.836c-0.656-18.875,1.137-34.828,5.371-47.852c4.227-13.016,8.621-25.551,13.184-37.598
	c2.602-6.508,5.203-13.1,7.813-19.775c2.602-6.668,4.883-13.588,6.836-20.752l4.395-4.883c2.273-5.203,4.15-9.521,5.615-12.939
	s3.006-6.912,4.639-10.498c0.977-2.273,1.869-4.471,2.686-6.592c0.809-2.113,1.541-3.982,2.197-5.615
	c-1.953,0-3.746,0.084-5.371,0.244c-1.633,0.168-3.258,0.412-4.883,0.732c-1.953,0.328-3.746,0.572-5.371,0.732
	c-1.633,0.168-3.258,0.244-4.883,0.244c-2.281,0-3.906-0.16-4.883-0.488c-3.586,1.633-7.492,2.441-11.719,2.441h-4.883
	c-0.977,0-1.877-0.076-2.686-0.244c-0.816-0.16-1.549-0.244-2.197-0.244c-3.258,0-5.859,0.488-7.813,1.465c-3.906,0-7.652,0-11.23,0
	h-4.883c-0.656,0-1.465,0.084-2.441,0.244c-0.977,0.168-1.793,0.244-2.441,0.244c-2.281,0-4.723-0.244-7.324-0.732
	c-2.609-0.488-5.371-1.541-8.301-3.174c-3.906-5.203-6.516-7.973-7.813-8.301l-4.395-5.859c-0.328-1.953-0.816-3.822-1.465-5.615
	c-0.656-1.785-1.305-3.822-1.953-6.104c-1.305-3.25-2.525-6.752-3.662-10.498c-1.145-3.738-1.709-8.217-1.709-13.428
	c0.32-2.602,0.977-4.555,1.953-5.859c0.977-1.297,1.785-2.441,2.441-3.418l1.465-7.324l6.348,0.488h13.672
	c10.414,0,20.996-0.404,31.738-1.221c10.742-0.809,21.805-1.709,33.203-2.686c6.508-0.648,13.1-1.297,19.775-1.953
	c6.668-0.648,13.588-1.297,20.752-1.953c1.297-2.93,2.602-5.691,3.906-8.301l4.883-2.441c5.859-0.32,10.01,0.412,12.451,2.197
	c2.441,1.793,4.471,3.502,6.104,5.127c7.156-0.648,14.404-1.381,21.729-2.197c7.324-0.809,14.725-1.869,22.217-3.174
	c11.063-1.625,22.217-3.09,33.447-4.395c11.23-1.297,22.049-1.953,32.471-1.953c4.555,0,8.949,0.168,13.184,0.488
	c4.227,0.328,8.133,0.816,11.719,1.465l4.883,3.418c0.977,1.953,2.357,3.746,4.15,5.371c1.785,1.633,3.662,3.258,5.615,4.883
	c3.906,3.586,7.813,7.813,11.719,12.695s5.371,12.047,4.395,21.484c-2.609,3.906-4.563,6.188-5.859,6.836l-4.395,5.859l-4.883-0.488
	c-1.953,0-3.746,0.244-5.371,0.732c-1.633,0.488-3.258,1.061-4.883,1.709c-1.305,0.656-2.609,1.221-3.906,1.709
	c-1.305,0.488-2.77,0.9-4.395,1.221c-2.93,0-5.295-0.076-7.08-0.244C2260.438,278.712,2258.568,278.628,2256.615,278.628z"/>
<g>
	<path d="M323.172,440.337c-1.633,0.328-3.098-0.893-4.395-3.662c-1.305-2.762-2.77-5.447-4.395-8.057h5.371
		c-2.281-7.156-2.854-13.748-1.709-19.775c1.137-6.02,2.518-11.879,4.15-17.578c1.625-5.691,3.006-11.23,4.15-16.602
		c1.137-5.371,0.564-10.986-1.709-16.846c1.625,0.977,2.846,0.572,3.662-1.221c0.809-1.785,1.465-4.066,1.953-6.836
		c0.488-2.762,0.648-5.691,0.488-8.789c-0.168-3.09-0.412-5.615-0.732-7.568c4.227-10.086,7.568-20.508,10.01-31.25
		s4.639-21.4,6.592-31.982c1.953-10.574,4.15-20.828,6.592-30.762c2.441-9.926,5.615-19.287,9.521-28.076
		c4.555-0.648,9.354-0.076,14.404,1.709c5.043,1.793,8.377,3.99,10.01,6.592c10.086-7.813,19.043-17.25,26.855-28.32
		c7.813-11.063,15.701-21.889,23.682-32.471c7.973-10.574,17.006-19.936,27.1-28.076c10.086-8.133,22.621-13.016,37.598-14.648
		c7.813,5.539,16.602,11.475,26.367,17.822s17.738,14.244,23.926,23.682c2.602,1.633,5.127,3.342,7.568,5.127
		c2.441,1.793,4.959,3.502,7.568,5.127v7.324c4.555,4.234,8.377,9.201,11.475,14.893c3.09,5.699,5.859,11.719,8.301,18.066
		s4.799,12.779,7.08,19.287c2.273,6.516,4.883,12.535,7.813,18.066c-0.656,1.953-0.9,3.662-0.732,5.127
		c0.16,1.465,0.488,2.93,0.977,4.395s0.893,3.098,1.221,4.883c0.32,1.793,0.488,3.99,0.488,6.592
		c-1.305,17.258-6.92,31.174-16.846,41.748c-9.934,10.582-21.973,19.211-36.133,25.879c-14.16,6.676-29.221,12.375-45.166,17.09
		c-15.953,4.723-30.441,9.85-43.457,15.381c0,1.305,0.732,1.953,2.197,1.953s1.869,0.977,1.221,2.93
		c9.766,5.859,17.334,10.582,22.705,14.16c5.371,3.586,10.414,6.592,15.137,9.033c4.715,2.441,9.926,4.479,15.625,6.104
		c5.691,1.633,13.588,3.586,23.682,5.859c10.086,2.281,17.982,4.15,23.682,5.615c5.691,1.465,10.818,2.609,15.381,3.418
		c4.555,0.816,9.438,1.549,14.648,2.197c5.203,0.656,12.207,1.465,20.996,2.441c3.578,3.586,6.508,7.813,8.789,12.695
		c2.273,4.883,3.906,9.766,4.883,14.648s1.221,9.521,0.732,13.916s-1.877,7.896-4.15,10.498c0.32,1.305,1.221,1.877,2.686,1.709
		c1.465-0.16,3.006-0.076,4.639,0.244c-2.281,1.633-4.234,3.586-5.859,5.859c-1.633,2.281-3.258,4.555-4.883,6.836
		c-1.633,2.273-3.502,4.395-5.615,6.348c-2.121,1.953-4.807,3.09-8.057,3.418c-11.719,4.555-26.695,4.715-44.922,0.488
		c-18.234-4.234-41.504-11.719-69.824-22.461c-14-5.203-25.391-9.926-34.18-14.16c-8.789-4.227-16.441-8.377-22.949-12.451
		c-6.516-4.066-12.535-8.461-18.066-13.184c-5.539-4.715-11.887-10.33-19.043-16.846c-0.977,0.328-1.549,0.977-1.709,1.953
		c-0.168,0.977-0.732,1.633-1.709,1.953c-1.633,13.023-4.15,23.605-7.568,31.738c-3.418,8.141-8.385,16.441-14.893,24.902
		c-5.211-0.977-8.713-0.488-10.498,1.465c-1.793,1.953-3.99,3.738-6.592,5.371c-3.258,0.648-5.699,0.564-7.324-0.244
		c-1.633-0.816-3.098-1.709-4.395-2.686c-1.305-0.977-2.77-1.953-4.395-2.93c-1.633-0.977-4.234-1.297-7.813-0.977
		c-0.977-2.93-1.953-5.775-2.93-8.545c-0.977-2.762-3.586-3.982-7.813-3.662c0.977-2.93,1.297-5.447,0.977-7.568
		c-0.328-2.113-0.816-4.066-1.465-5.859c-0.656-1.785-1.221-3.662-1.709-5.615S322.195,442.946,323.172,440.337z M486.258,217.192
		c-4.234,6.188-8.957,11.803-14.16,16.846c-5.211,5.051-10.338,10.254-15.381,15.625c-5.051,5.371-9.521,11.23-13.428,17.578
		s-6.676,13.916-8.301,22.705c13.672-1.625,27.992-5.447,42.969-11.475c14.969-6.02,29.129-11.795,42.48-17.334
		c-1.633-12.039-5.859-21.729-12.695-29.053S493.742,219.802,486.258,217.192z"/>
	<g>
		<path d="M328.972,439.105l2.037-5.443l-4.746,0.954C327.122,436.052,328.023,437.546,328.972,439.105z"/>
		<path d="M636.635,469.122c-0.254-0.05-0.507-0.096-0.759-0.136c0.782-2.076,1.314-4.365,1.592-6.857
			c0.543-4.886,0.273-10.083-0.799-15.448c-1.047-5.23-2.813-10.539-5.256-15.784c-2.513-5.378-5.803-10.125-9.78-14.11l-1.24-1.244
			l-1.747-0.194c-9.37-1.041-16.019-1.813-20.931-2.434c-5.098-0.634-9.938-1.36-14.394-2.158c-4.351-0.771-9.4-1.895-15.008-3.338
			c-5.696-1.464-13.489-3.312-23.828-5.65c-9.965-2.244-17.838-4.191-23.409-5.79c-5.347-1.524-10.292-3.454-14.7-5.736
			c-4.559-2.357-9.49-5.301-14.66-8.753c-4.949-3.297-11.759-7.563-20.268-12.7c-0.017-0.102-0.036-0.204-0.058-0.304
			c11.075-4.419,23.254-8.601,36.305-12.464c16.113-4.765,31.55-10.606,45.878-17.361c14.653-6.9,27.319-15.978,37.648-26.98
			c10.681-11.378,16.799-26.449,18.186-44.793l0.015-0.377c0-2.854-0.19-5.368-0.57-7.496c-0.374-2.035-0.844-3.906-1.396-5.56
			c-0.378-1.133-0.63-2.263-0.752-3.383c-0.047-0.407-0.044-1.334,0.504-2.964l0.685-2.036l-1.005-1.897
			c-2.816-5.317-5.343-11.162-7.513-17.38c-2.324-6.63-4.724-13.167-7.132-19.428c-2.498-6.494-5.382-12.77-8.576-18.662
			c-2.979-5.475-6.629-10.385-10.866-14.625V165.1l-2.356-1.468c-2.456-1.529-4.896-3.182-7.261-4.919
			c-2.226-1.627-4.558-3.221-6.945-4.746c-6.464-9.587-14.794-17.731-24.775-24.219c-9.752-6.338-18.566-12.297-26.2-17.708
			l-1.548-1.098l-1.886,0.206c-15.876,1.731-29.399,7.022-40.194,15.727c-10.361,8.356-19.766,18.099-27.953,28.958
			c-7.863,10.427-15.862,21.395-23.774,32.599c-6.566,9.304-14.066,17.506-22.337,24.434c-2.245-1.748-5.155-3.249-8.777-4.537
			c-5.795-2.048-11.453-2.703-16.775-1.945l-2.74,0.39l-1.124,2.529c-4.006,9.014-7.306,18.742-9.808,28.914
			c-2.453,9.981-4.691,20.427-6.653,31.047c-1.929,10.453-4.133,21.146-6.551,31.782c-2.362,10.395-5.641,20.632-9.745,30.425
			l-0.556,1.325l0.232,1.417c0.29,1.766,0.517,4.131,0.674,7.018c0.141,2.717-0.001,5.294-0.419,7.663
			c-0.2,1.135-0.43,2.167-0.688,3.094l-9.949-5.979l5.284,13.619c1.934,4.985,2.418,9.565,1.479,13.995
			c-1.127,5.291-2.496,10.766-4.066,16.267c-1.66,5.793-3.092,11.858-4.256,18.022c-0.181,0.951-0.313,1.918-0.418,2.894
			c2.071,3.763,3.91,7.05,5.437,9.776l1.241,2.22c1.617,2.892,3.736,6.558,6.275,10.818h0.928l-2.078-6.519
			c-2.017-6.327-2.542-12.155-1.56-17.329c1.108-5.867,2.469-11.63,4.045-17.133c1.634-5.723,3.059-11.419,4.234-16.939
			c0.979-4.624,0.89-9.417-0.261-14.308c0.688-0.664,1.339-1.55,1.877-2.73c0.985-2.175,1.767-4.877,2.322-8.028
			c0.55-3.109,0.737-6.446,0.557-9.931c-0.141-2.598-0.331-4.792-0.577-6.657c4.077-9.933,7.352-20.281,9.738-30.782
			c2.447-10.769,4.679-21.597,6.633-32.182c1.926-10.43,4.123-20.684,6.53-30.476c2.111-8.584,4.819-16.82,8.062-24.527
			c2.943-0.045,6.079,0.525,9.334,1.676c5.153,1.833,6.879,3.63,7.449,4.539l2.935,4.674l4.362-3.38
			c10.447-8.092,19.827-17.98,27.878-29.389c7.852-11.118,15.788-22,23.59-32.345c7.693-10.204,16.524-19.354,26.246-27.194
			c8.866-7.149,20.01-11.636,33.144-13.348c7.37,5.188,15.757,10.841,24.958,16.822c9.128,5.933,16.688,13.413,22.469,22.231
			l0.599,0.913l0.925,0.58c2.509,1.574,4.956,3.232,7.267,4.922c1.807,1.326,3.657,2.611,5.528,3.836v6.764l1.596,1.483
			c4.129,3.838,7.657,8.421,10.483,13.613c2.985,5.506,5.687,11.387,8.029,17.479c2.373,6.168,4.737,12.61,7.026,19.139
			c2.094,6.001,4.508,11.701,7.187,16.972c-0.416,1.833-0.536,3.55-0.356,5.118c0.197,1.799,0.602,3.626,1.204,5.432
			c0.404,1.213,0.757,2.628,1.042,4.181c0.265,1.482,0.402,3.34,0.41,5.525c-1.237,15.923-6.449,28.88-15.491,38.513
			c-9.463,10.081-21.109,18.417-34.619,24.779c-13.87,6.539-28.826,12.197-44.453,16.818c-16.069,4.757-30.871,9.997-43.994,15.574
			l-3.044,1.293v3.308c0,2.475,1.082,4.499,2.874,5.712l-0.464,1.397l3.436,2.061c9.614,5.769,17.186,10.49,22.501,14.031
			c5.475,3.655,10.729,6.79,15.614,9.315c4.996,2.587,10.565,4.765,16.545,6.469c5.748,1.649,13.811,3.646,23.957,5.931
			c10.239,2.315,17.939,4.142,23.539,5.58c5.853,1.507,11.153,2.684,15.745,3.498c4.62,0.828,9.638,1.581,14.904,2.236
			c4.631,0.584,10.782,1.302,19.26,2.248c2.635,2.899,4.858,6.27,6.618,10.038c2.104,4.52,3.623,9.067,4.513,13.519
			c0.871,4.355,1.096,8.521,0.666,12.384c-0.37,3.336-1.361,5.947-2.945,7.76l-1.711,1.957l0.62,2.525
			c0.376,1.531,1.154,2.816,2.217,3.763c-1.622,2.267-3.237,4.525-4.84,6.776c-1.446,2.013-3.11,3.895-4.941,5.587
			c-1.313,1.208-3.005,1.902-5.172,2.121l-0.676,0.068l-0.634,0.246c-5.466,2.124-11.873,3.201-19.042,3.202
			c-6.854,0-14.571-0.984-22.938-2.924c-17.936-4.165-41.212-11.656-69.213-22.277c-13.755-5.112-25.11-9.815-33.755-13.979
			c-8.593-4.133-16.15-8.231-22.469-12.187c-6.266-3.911-12.143-8.199-17.473-12.75c-5.472-4.657-11.836-10.287-18.918-16.735
			l-2.173-1.979l-2.786,0.937c-2.214,0.743-3.839,2.28-4.625,4.302l-1.768,0.58l-0.394,3.142
			c-1.571,12.531-3.999,22.768-7.218,30.425c-2.923,6.962-7.123,14.175-12.5,21.472c-0.85-0.081-1.659-0.122-2.423-0.122
			c-4.165,0-7.377,1.204-9.541,3.572c-1.294,1.409-2.898,2.755-4.778,4.008c-0.557,0.087-1.052,0.131-1.514,0.153
			c1.995,2.896,4.039,5.824,6.124,8.771c2.942-1.856,5.479-3.931,7.514-6.151c0.005-0.003,0.517-0.354,2.195-0.354
			c1.042,0,2.294,0.136,3.72,0.402l3.015,0.565l1.869-2.431c6.746-8.771,11.975-17.523,15.539-26.014
			c3.281-7.807,5.797-17.83,7.49-29.829c5.392,4.853,10.315,9.178,14.683,12.896c5.701,4.867,11.98,9.45,18.66,13.619
			c6.625,4.147,14.51,8.427,23.433,12.718c8.92,4.297,20.563,9.122,34.576,14.33c28.388,10.768,52.096,18.391,70.468,22.657
			c9.107,2.111,17.586,3.183,25.198,3.183c8.155-0.001,15.57-1.228,22.052-3.648c4.037-0.531,7.481-2.089,10.252-4.64
			c2.331-2.154,4.445-4.544,6.294-7.118c1.623-2.278,3.246-4.549,4.878-6.83c1.298-1.814,2.879-3.396,4.702-4.701l9.42-6.742
			L636.635,469.122z"/>
		<path d="M522.354,265.756l3.556-1.475l-0.517-3.815c-1.77-13.042-6.478-23.738-13.995-31.792
			c-7.354-7.88-15.259-13.332-23.493-16.202l-3.612-1.259l-2.16,3.157c-4.021,5.875-8.567,11.285-13.514,16.079
			c-5.298,5.134-10.528,10.448-15.544,15.79c-5.244,5.576-9.969,11.761-14.043,18.383c-4.217,6.851-7.23,15.066-8.96,24.417
			l-1.233,6.675l6.74-0.801c14.052-1.67,28.938-5.641,44.244-11.8C494.942,277.03,509.252,271.191,522.354,265.756z
			 M441.514,283.938c1.5-5.275,3.52-9.99,6.034-14.076c3.72-6.046,8.03-11.689,12.814-16.776
			c4.911-5.231,10.03-10.432,15.215-15.457c4.486-4.348,8.668-9.15,12.468-14.316c5.495,2.565,10.877,6.65,16.042,12.184
			c5.362,5.746,8.979,13.314,10.775,22.539c-12.059,4.986-25.081,10.292-38.772,15.798
			C464.181,278.626,452.583,282.014,441.514,283.938z"/>
	</g>
</g>
<path d="M782.756,448.149c1.625,9.766,1.053,17.418-1.709,22.949c-2.77,5.539-6.676,9.689-11.719,12.451
	c-5.051,2.762-10.826,4.311-17.334,4.639c-6.516,0.32-12.695,0-18.555-0.977c-3.258-4.563-6.188-10.254-8.789-17.09
	c-2.609-6.836-5.051-13.916-7.324-21.24c-2.281-7.324-4.318-14.564-6.104-21.729c-1.793-7.156-3.342-13.504-4.639-19.043
	c1.625-3.906,2.686-8.377,3.174-13.428c0.488-5.043,0.809-10.17,0.977-15.381c0.16-5.203,0.32-10.498,0.488-15.869
	c0.16-5.371,0.564-10.498,1.221-15.381c2.273-13.672,5.615-26.688,10.01-39.063c4.395-12.367,7.889-25.223,10.498-38.574
	c0.648-2.93,0.404-5.691-0.732-8.301c-1.145-2.602-1.389-5.043-0.732-7.324c0.32-1.297,1.297-2.197,2.93-2.686
	c1.625-0.488,2.602-1.541,2.93-3.174c0.977-3.578,1.221-6.508,0.732-8.789c-0.488-2.273,0.076-5.043,1.709-8.301
	c1.625-2.602,3.662-6.424,6.104-11.475c2.441-5.043,3.334-10.33,2.686-15.869c2.93-1.953,5.691-4.227,8.301-6.836
	c2.602-2.602,5.287-4.959,8.057-7.08c2.762-2.113,5.859-3.982,9.277-5.615c3.418-1.625,7.568-2.441,12.451-2.441
	c2.602,3.258,4.311,6.836,5.127,10.742c0.809,3.906,1.625,7.813,2.441,11.719c0.809,3.906,2.029,7.568,3.662,10.986
	c1.625,3.418,4.395,6.104,8.301,8.057c0,2.609,0,5.859,0,9.766s0.16,7.736,0.488,11.475c0.32,3.746,1.053,7.164,2.197,10.254
	c1.137,3.098,3.006,5.127,5.615,6.104c-5.859,15.625-11.314,31.09-16.357,46.387c-5.051,15.305-9.201,30.686-12.451,46.143
	c-3.258,15.465-5.295,31.006-6.104,46.631C778.766,416.411,779.826,432.204,782.756,448.149z"/>
<path d="M907.756,465.728c-1.953,11.07-7.492,18.715-16.602,22.949c-4.234,0.32-7.408,0.16-9.521-0.488
	c-2.121-0.656-4.318-1.465-6.592-2.441c-2.93-1.305-5.539-2.121-7.813-2.441l-5.371-3.906c-0.656-1.625-1.465-3.25-2.441-4.883
	c-0.977-1.625-2.121-3.25-3.418-4.883c-2.609-3.25-5.211-7.324-7.813-12.207c-1.953-9.438-2.281-17.334-0.977-23.682
	c1.297-6.348,2.93-12.611,4.883-18.799c0.648-1.953,1.297-3.982,1.953-6.104c0.648-2.113,1.297-4.15,1.953-6.104
	c-8.469-4.555-14.816-11.063-19.043-19.531c-4.227-8.461-6.668-16.602-7.324-24.414c0.977-6.18,2.77-11.146,5.371-14.893
	c2.609-3.738,5.615-6.752,9.033-9.033c3.418-2.273,6.996-4.066,10.742-5.371c3.738-1.297,7.4-2.441,10.986-3.418l6.348,2.441
	c2.93,2.93,5.859,5.211,8.789,6.836c2.273-0.977,3.822-2.518,4.639-4.639c0.809-2.113,1.541-4.471,2.197-7.08
	c0.977-2.93,2.029-5.859,3.174-8.789c1.137-2.93,2.518-5.859,4.15-8.789c-0.328-4.227,0.32-8.133,1.953-11.719
	c-2.281-1.625-4.723-2.602-7.324-2.93c-0.656,0-2.281-0.32-4.883-0.977c-3.906-2.93-6.592-5.447-8.057-7.568
	c-1.465-2.113-2.854-4.15-4.15-6.104c-1.953-4.227-4.395-7.645-7.324-10.254l-4.883-3.418l2.441-4.883
	c0.648-0.648,0.977-1.465,0.977-2.441s-0.656-2.441-1.953-4.395c-0.656-3.578-0.656-6.02,0-7.324l0.977-4.883
	c2.602-3.578,3.906-5.531,3.906-5.859l4.395-4.395c6.508-1.625,12.939-3.494,19.287-5.615c6.348-2.113,12.771-4.311,19.287-6.592
	c6.18-1.953,12.451-3.982,18.799-6.104c6.348-2.113,12.771-3.982,19.287-5.615c2.273-1.625,4.715-2.686,7.324-3.174
	c2.602-0.488,5.043-0.893,7.324-1.221c1.953-0.32,3.738-0.564,5.371-0.732c1.625-0.16,2.762-0.732,3.418-1.709
	c3.906-1.297,8.461-2.762,13.672-4.395c8.133-2.273,18.875-4.799,32.227-7.568c13.344-2.762,28.32-4.959,44.922-6.592l8.301-0.488
	c1.625,0.328,3.25,0.412,4.883,0.244c1.625-0.16,3.25-0.244,4.883-0.244c14.648,0,23.926,4.395,27.832,13.184
	c2.93,1.633,5.531,3.418,7.813,5.371c2.273,1.953,4.395,3.906,6.348,5.859c0.977,1.305,2.029,2.441,3.174,3.418
	c1.137,0.977,2.029,1.633,2.686,1.953c5.531,8.469,7.324,15.953,5.371,22.461c-2.93,4.234-6.676,6.676-11.23,7.324l-5.371,2.93
	c-3.586-0.32-6.271-0.488-8.057-0.488c-1.793,0-3.662,0-5.615,0c-8.141,0-17.578,0.488-28.32,1.465s-21.729,2.365-32.959,4.15
	c-11.23,1.793-22.057,3.99-32.471,6.592c-10.422,2.609-19.531,5.371-27.344,8.301l-8.789,4.395
	c-2.281,3.586-3.586,6.432-3.906,8.545c-0.328,2.121-0.656,4.15-0.977,6.104c-0.328,1.305-0.572,2.609-0.732,3.906
	c-0.168,1.305-0.412,2.77-0.732,4.395c-5.539,6.836-8.301,14.977-8.301,24.414c-2.281,3.906-3.746,6.76-4.395,8.545
	c-0.656,1.793-0.656,3.99,0,6.592c6.18,2.609,12.039,3.586,17.578,2.93c5.531-0.648,11.063-1.465,16.602-2.441
	c7.484-1.297,15.213-2.441,23.193-3.418c7.973-0.977,16.189-1.465,24.658-1.465h15.625l-3.906,3.906l2.441,6.836
	c1.953,0.977,3.334,1.633,4.15,1.953c0.809,0.328,1.709,0.816,2.686,1.465l2.441,4.395c1.297,0.656,2.518,1.793,3.662,3.418
	c1.137,1.633,1.869,4.074,2.197,7.324l-20.02,28.32l-6.836,1.953c-5.539-0.32-10.422,0.328-14.648,1.953
	c-2.281,0.656-4.563,1.221-6.836,1.709c-2.281,0.488-4.723,0.732-7.324,0.732c-6.516,1.305-11.963,2.281-16.357,2.93
	c-4.395,0.656-8.873,1.305-13.428,1.953c-5.859,0.656-11.559,1.549-17.09,2.686c-5.539,1.145-10.742,2.686-15.625,4.639
	c-3.258,0-5.539,0-6.836,0c-2.609,0-5.295,0.412-8.057,1.221c-2.77,0.816-5.295,1.549-7.568,2.197
	c-1.633,1.305-2.77,2.686-3.418,4.15c-0.656,1.465-1.305,3.014-1.953,4.639c-1.305,4.563-3.098,8.301-5.371,11.23v7.324
	c-2.609,3.258-4.15,5.783-4.639,7.568c-0.488,1.793-1.061,3.502-1.709,5.127c-0.656,0.977-1.145,1.877-1.465,2.686
	c-0.328,0.816-0.488,1.709-0.488,2.686C908.404,454.009,909.053,459.548,907.756,465.728z"/>
<path d="M1135.295,465.728c-1.953,11.07-7.492,18.715-16.602,22.949c-4.234,0.32-7.408,0.16-9.521-0.488
	c-2.121-0.656-4.318-1.465-6.592-2.441c-2.93-1.305-5.539-2.121-7.813-2.441l-5.371-3.906c-0.656-1.625-1.465-3.25-2.441-4.883
	c-0.977-1.625-2.121-3.25-3.418-4.883c-2.609-3.25-5.211-7.324-7.813-12.207c-1.953-9.438-2.281-17.334-0.977-23.682
	c1.297-6.348,2.93-12.611,4.883-18.799c0.648-1.953,1.297-3.982,1.953-6.104c0.648-2.113,1.297-4.15,1.953-6.104
	c-8.469-4.555-14.816-11.063-19.043-19.531c-4.227-8.461-6.668-16.602-7.324-24.414c0.977-6.18,2.77-11.146,5.371-14.893
	c2.609-3.738,5.615-6.752,9.033-9.033c3.418-2.273,6.996-4.066,10.742-5.371c3.738-1.297,7.4-2.441,10.986-3.418l6.348,2.441
	c2.93,2.93,5.859,5.211,8.789,6.836c2.273-0.977,3.822-2.518,4.639-4.639c0.809-2.113,1.541-4.471,2.197-7.08
	c0.977-2.93,2.029-5.859,3.174-8.789c1.137-2.93,2.518-5.859,4.15-8.789c-0.328-4.227,0.32-8.133,1.953-11.719
	c-2.281-1.625-4.723-2.602-7.324-2.93c-0.656,0-2.281-0.32-4.883-0.977c-3.906-2.93-6.592-5.447-8.057-7.568
	c-1.465-2.113-2.854-4.15-4.15-6.104c-1.953-4.227-4.395-7.645-7.324-10.254l-4.883-3.418l2.441-4.883
	c0.648-0.648,0.977-1.465,0.977-2.441s-0.656-2.441-1.953-4.395c-0.656-3.578-0.656-6.02,0-7.324l0.977-4.883
	c2.602-3.578,3.906-5.531,3.906-5.859l4.395-4.395c6.508-1.625,12.939-3.494,19.287-5.615c6.348-2.113,12.771-4.311,19.287-6.592
	c6.18-1.953,12.451-3.982,18.799-6.104c6.348-2.113,12.771-3.982,19.287-5.615c2.273-1.625,4.715-2.686,7.324-3.174
	c2.602-0.488,5.043-0.893,7.324-1.221c1.953-0.32,3.738-0.564,5.371-0.732c1.625-0.16,2.762-0.732,3.418-1.709
	c3.906-1.297,8.461-2.762,13.672-4.395c8.133-2.273,18.875-4.799,32.227-7.568c13.344-2.762,28.32-4.959,44.922-6.592l8.301-0.488
	c1.625,0.328,3.25,0.412,4.883,0.244c1.625-0.16,3.25-0.244,4.883-0.244c14.648,0,23.926,4.395,27.832,13.184
	c2.93,1.633,5.531,3.418,7.813,5.371c2.273,1.953,4.395,3.906,6.348,5.859c0.977,1.305,2.029,2.441,3.174,3.418
	c1.137,0.977,2.029,1.633,2.686,1.953c5.531,8.469,7.324,15.953,5.371,22.461c-2.93,4.234-6.676,6.676-11.23,7.324l-5.371,2.93
	c-3.586-0.32-6.271-0.488-8.057-0.488c-1.793,0-3.662,0-5.615,0c-8.141,0-17.578,0.488-28.32,1.465s-21.729,2.365-32.959,4.15
	c-11.23,1.793-22.057,3.99-32.471,6.592c-10.422,2.609-19.531,5.371-27.344,8.301l-8.789,4.395
	c-2.281,3.586-3.586,6.432-3.906,8.545c-0.328,2.121-0.656,4.15-0.977,6.104c-0.328,1.305-0.572,2.609-0.732,3.906
	c-0.168,1.305-0.412,2.77-0.732,4.395c-5.539,6.836-8.301,14.977-8.301,24.414c-2.281,3.906-3.746,6.76-4.395,8.545
	c-0.656,1.793-0.656,3.99,0,6.592c6.18,2.609,12.039,3.586,17.578,2.93c5.531-0.648,11.063-1.465,16.602-2.441
	c7.484-1.297,15.213-2.441,23.193-3.418c7.973-0.977,16.189-1.465,24.658-1.465h15.625l-3.906,3.906l2.441,6.836
	c1.953,0.977,3.334,1.633,4.15,1.953c0.809,0.328,1.709,0.816,2.686,1.465l2.441,4.395c1.297,0.656,2.518,1.793,3.662,3.418
	c1.137,1.633,1.869,4.074,2.197,7.324l-20.02,28.32l-6.836,1.953c-5.539-0.32-10.422,0.328-14.648,1.953
	c-2.281,0.656-4.563,1.221-6.836,1.709c-2.281,0.488-4.723,0.732-7.324,0.732c-6.516,1.305-11.963,2.281-16.357,2.93
	c-4.395,0.656-8.873,1.305-13.428,1.953c-5.859,0.656-11.559,1.549-17.09,2.686c-5.539,1.145-10.742,2.686-15.625,4.639
	c-3.258,0-5.539,0-6.836,0c-2.609,0-5.295,0.412-8.057,1.221c-2.77,0.816-5.295,1.549-7.568,2.197
	c-1.633,1.305-2.77,2.686-3.418,4.15c-0.656,1.465-1.305,3.014-1.953,4.639c-1.305,4.563-3.098,8.301-5.371,11.23v7.324
	c-2.609,3.258-4.15,5.783-4.639,7.568c-0.488,1.793-1.061,3.502-1.709,5.127c-0.656,0.977-1.145,1.877-1.465,2.686
	c-0.328,0.816-0.488,1.709-0.488,2.686C1135.943,454.009,1136.592,459.548,1135.295,465.728z"/>
<path d="M1423.381,476.958c-9.117,2.93-19.043,5.859-29.785,8.789s-21.484,4.395-32.227,4.395c-16.281,0-29.137-4.074-38.574-12.207
	c-1.633-3.578-3.098-6.02-4.395-7.324c-0.977-1.297-1.877-2.686-2.686-4.15c-0.816-1.465-1.389-3.494-1.709-6.104
	c-3.906-4.555-7.004-9.842-9.277-15.869c-2.281-6.02-3.83-12.207-4.639-18.555c-0.816-6.348-0.977-12.771-0.488-19.287
	c0.488-6.508,1.541-12.695,3.174-18.555c0.648-1.297,1.053-2.602,1.221-3.906c0.16-1.297,0.404-2.762,0.732-4.395
	c1.297-5.203,2.686-10.254,4.15-15.137s3.494-9.109,6.104-12.695c-1.305-2.93-1.305-6.18,0-9.766
	c1.297-3.578,2.762-6.836,4.395-9.766c4.555-12.367,8.377-22.865,11.475-31.494c3.09-8.621,6.264-17.166,9.521-25.635
	c5.531-14.648,10.742-29.129,15.625-43.457c4.883-14.32,9.277-29.785,13.184-46.387c2.602-1.625,4.555-2.762,5.859-3.418
	c1.953-0.648,3.578-1.137,4.883-1.465c5.859,2.93,12.695,5.783,20.508,8.545c7.813,2.77,14.32,4.15,19.531,4.15
	c2.602,1.633,4.227,2.854,4.883,3.662c0.648,0.816,1.297,1.549,1.953,2.197c3.578,4.234,6.668,8.545,9.277,12.939
	c2.602,4.395,3.418,10.178,2.441,17.334c-1.953,2.93-3.418,4.395-4.395,4.395c-1.633,6.516-3.342,12.047-5.127,16.602
	c-1.793,4.563-3.662,9.117-5.615,13.672c-2.281,4.883-4.395,9.766-6.348,14.648s-3.586,10.91-4.883,18.066
	c-1.305,1.633-2.197,3.098-2.686,4.395c-0.488,1.305-1.061,2.77-1.709,4.395c-0.656,1.633-1.389,3.342-2.197,5.127
	c-0.816,1.793-2.037,3.342-3.662,4.639c-0.977,8.469-2.525,15.305-4.639,20.508c-2.121,5.211-4.318,10.422-6.592,15.625
	c-3.906,9.445-7.408,18.883-10.498,28.32c-3.098,9.445-4.967,20.188-5.615,32.227c1.625-0.648,3.174-0.977,4.639-0.977
	s2.846,0,4.15,0c2.93,0,6.348,0.488,10.254,1.465c9.766-5.203,20.424-8.301,31.982-9.277c11.551-0.977,23.025-1.625,34.424-1.953
	c4.555,0,9.109,0,13.672,0c4.555,0,8.789-0.32,12.695-0.977c2.93,1.633,4.799,2.525,5.615,2.686
	c0.809,0.168,2.029,0.244,3.662,0.244c2.273,0,4.227,0.168,5.859,0.488c3.906,3.586,7.645,6.188,11.23,7.813
	c3.578,1.633,7.324,3.098,11.23,4.395c3.578,1.305,7.08,2.686,10.498,4.15s6.752,3.502,10.01,6.104l3.418,20.996
	c2.273,2.93,3.25,4.883,2.93,5.859c0,2.609-0.656,4.563-1.953,5.859l0.977,5.371c-4.883,0.977-8.225,2.121-10.01,3.418
	c-1.793,1.305-3.502,2.77-5.127,4.395c-2.609,0.328-4.479,0.488-5.615,0.488c-1.145,0-2.197,0-3.174,0
	c-4.563,0-10.094,0.816-16.602,2.441c-8.789-2.93-17.906-4.395-27.344-4.395c-3.586,0-7.324,0.168-11.23,0.488
	c-3.906,0.328-7.813,0.656-11.719,0.977c-3.906,0.656-7.896,1.145-11.963,1.465c-4.074,0.328-8.225,0.488-12.451,0.488
	L1423.381,476.958z"/>
<path d="M1664.592,448.149c1.625,9.766,1.053,17.418-1.709,22.949c-2.77,5.539-6.676,9.689-11.719,12.451
	c-5.051,2.762-10.826,4.311-17.334,4.639c-6.516,0.32-12.695,0-18.555-0.977c-3.258-4.563-6.188-10.254-8.789-17.09
	c-2.609-6.836-5.051-13.916-7.324-21.24c-2.281-7.324-4.318-14.564-6.104-21.729c-1.793-7.156-3.342-13.504-4.639-19.043
	c1.625-3.906,2.686-8.377,3.174-13.428c0.488-5.043,0.809-10.17,0.977-15.381c0.16-5.203,0.32-10.498,0.488-15.869
	c0.16-5.371,0.564-10.498,1.221-15.381c2.273-13.672,5.615-26.688,10.01-39.063c4.395-12.367,7.889-25.223,10.498-38.574
	c0.648-2.93,0.404-5.691-0.732-8.301c-1.145-2.602-1.389-5.043-0.732-7.324c0.32-1.297,1.297-2.197,2.93-2.686
	c1.625-0.488,2.602-1.541,2.93-3.174c0.977-3.578,1.221-6.508,0.732-8.789c-0.488-2.273,0.076-5.043,1.709-8.301
	c1.625-2.602,3.662-6.424,6.104-11.475c2.441-5.043,3.334-10.33,2.686-15.869c2.93-1.953,5.691-4.227,8.301-6.836
	c2.602-2.602,5.287-4.959,8.057-7.08c2.762-2.113,5.859-3.982,9.277-5.615c3.418-1.625,7.568-2.441,12.451-2.441
	c2.602,3.258,4.311,6.836,5.127,10.742c0.809,3.906,1.625,7.813,2.441,11.719c0.809,3.906,2.029,7.568,3.662,10.986
	c1.625,3.418,4.395,6.104,8.301,8.057c0,2.609,0,5.859,0,9.766s0.16,7.736,0.488,11.475c0.32,3.746,1.053,7.164,2.197,10.254
	c1.137,3.098,3.006,5.127,5.615,6.104c-5.859,15.625-11.314,31.09-16.357,46.387c-5.051,15.305-9.201,30.686-12.451,46.143
	c-3.258,15.465-5.295,31.006-6.104,46.631C1660.602,416.411,1661.662,432.204,1664.592,448.149z"/>
<path d="M1729.045,262.603c2.273-6.836,5.936-12.695,10.986-17.578c5.043-4.883,10.574-9.033,16.602-12.451
	c6.02-3.418,12.283-6.264,18.799-8.545c6.508-2.273,12.695-4.227,18.555-5.859c13.016-5.531,26.932-10.818,41.748-15.869
	c14.809-5.043,29.945-9.521,45.41-13.428c15.457-3.906,31.326-6.424,47.607-7.568c16.273-1.137,33.363,0.9,51.27,6.104
	c0.977,3.258,2.441,6.348,4.395,9.277s3.982,5.859,6.104,8.789c2.113,2.93,3.982,5.783,5.615,8.545
	c1.625,2.77,2.602,5.615,2.93,8.545c3.25,2.93,5.859,6.104,7.813,9.521s2.273,7.896,0.977,13.428
	c-3.258,2.609-6.432,4.967-9.521,7.08c-3.098,2.121-6.432,3.99-10.01,5.615c-12.047-2.93-24.254-3.906-36.621-2.93
	c-12.375,0.977-23.438,1.793-33.203,2.441c-2.93-2.93-6.432-4.395-10.498-4.395c-4.074,0-8.301,0.656-12.695,1.953
	c-4.395,1.305-8.789,2.609-13.184,3.906c-4.395,1.305-8.545,1.633-12.451,0.977c-3.258,2.609-7.248,4.318-11.963,5.127
	c-4.723,0.816-9.85,1.549-15.381,2.197c-0.328,1.633,0,2.686,0.977,3.174s1.137,1.549,0.488,3.174
	c1.953,2.281,4.471,3.906,7.568,4.883c3.09,0.977,6.348,1.953,9.766,2.93s6.424,2.197,9.033,3.662
	c2.602,1.465,4.395,3.83,5.371,7.08c4.883,0,9.109,1.145,12.695,3.418c3.578,2.281,6.508,5.051,8.789,8.301
	c2.273,3.258,3.982,6.76,5.127,10.498c1.137,3.746,1.709,7.08,1.709,10.01c0.977,2.609,2.113,3.746,3.418,3.418
	c1.297-0.32,2.762,0.328,4.395,1.953c0.977,4.234,3.418,8.545,7.324,12.939s6.996,9.201,9.277,14.404
	c0.648,8.141,1.137,15.381,1.465,21.729c0.32,6.348-0.816,12.779-3.418,19.287c-4.883,12.047-11.643,22.789-20.264,32.227
	c-8.629,9.445-18.395,17.822-29.297,25.146c-10.91,7.324-22.545,13.596-34.912,18.799c-12.375,5.211-24.414,9.598-36.133,13.184
	c-1.305-0.328-2.609-0.328-3.906,0c-1.305,0.32-1.633-0.488-0.977-2.441c-2.609,2.273-5.455,3.738-8.545,4.395
	c-3.098,0.648-6.432,0.893-10.01,0.732c-3.586-0.168-7.248-0.412-10.986-0.732c-3.746-0.328-7.248-0.168-10.498,0.488
	c-2.281-2.281-4.318-4.479-6.104-6.592c-1.793-2.113-3.174-4.799-4.15-8.057c-1.633,0-2.365-0.809-2.197-2.441
	c0.16-1.625-0.412-2.441-1.709-2.441c1.953-3.25,2.846-5.127,2.686-5.615c-0.168-0.488-0.656-0.893-1.465-1.221
	c-0.816-0.32-1.549-0.732-2.197-1.221c-0.656-0.488-0.816-1.221-0.488-2.197c1.297-2.602,1.785-5.615,1.465-9.033
	c-0.328-3.418-0.656-6.912-0.977-10.498c-0.328-3.578-0.084-6.996,0.732-10.254c0.809-3.25,3.174-5.859,7.08-7.813
	c11.063,1.305,21.561,0.9,31.494-1.221c9.926-2.113,19.287-5.127,28.076-9.033s17.166-8.133,25.146-12.695
	c7.973-4.555,15.869-8.621,23.682-12.207c0.977-2.93,2.357-5.371,4.15-7.324c1.785-1.953,3.662-3.738,5.615-5.371
	c1.953-1.625,3.738-3.418,5.371-5.371c1.625-1.953,2.762-4.395,3.418-7.324c0.32-2.273-0.244-3.662-1.709-4.15
	s-2.197-1.709-2.197-3.662l-5.371-1.465c-6.188-3.578-13.184-6.592-20.996-9.033s-14.488-5.127-20.02-8.057
	c-3.586,1.953-6.92,2.441-10.01,1.465c-3.098-0.977-7.08-1.953-11.963-2.93c-11.07-0.648-21.729-1.785-31.982-3.418
	c-10.254-1.625-20.104-4.555-29.541-8.789c-0.656-1.625-1.465-3.09-2.441-4.395c-0.977-1.297-2.77-1.625-5.371-0.977
	c-1.953-2.602-3.906-5.127-5.859-7.568s-3.746-5.127-5.371-8.057c0.648-3.906,1.137-7.24,1.465-10.01
	c0.32-2.762-0.656-5.447-2.93-8.057c1.297-4.227,2.273-7.645,2.93-10.254C1729.693,270.255,1729.693,266.837,1729.045,262.603z"/>
<path d="M2230.998,247.466c-8.141,0-16.93,0.572-26.367,1.709c-9.445,1.145-18.723,2.365-27.832,3.662
	c-6.516,0.977-12.779,1.793-18.799,2.441c-6.027,0.656-11.475,1.145-16.357,1.465c-2.281,7.164-4.563,13.512-6.836,19.043
	c-2.281,5.539-4.723,10.91-7.324,16.113c-2.609,5.539-4.967,11.154-7.08,16.846c-2.121,5.699-4.15,11.803-6.104,18.311
	c-3.258,5.211-5.943,10.01-8.057,14.404c-2.121,4.395-3.83,9.361-5.127,14.893c-3.906,4.883-6.836,10.01-8.789,15.381
	s-3.418,10.01-4.395,13.916l-1.953,5.859c-1.953,1.953-3.098,3.502-3.418,4.639c-0.328,1.145-1.145,2.197-2.441,3.174
	c-0.328,3.586-1.465,7.164-3.418,10.742c-0.656,1.633-1.145,3.174-1.465,4.639c-0.328,1.465-0.488,2.525-0.488,3.174
	c0,3.258-0.816,5.371-2.441,6.348c0.32,1.633,0.32,3.342,0,5.127c-0.328,1.793-0.656,3.502-0.977,5.127
	c-0.977,3.906-1.305,7.004-0.977,9.277c0.977,1.305,1.869,2.441,2.686,3.418c0.809,0.977,1.381,2.281,1.709,3.906
	c1.953,1.305,3.418,2.121,4.395,2.441c1.297,0.977,3.25,2.121,5.859,3.418l4.395,4.883c1.625,9.445,0.16,16.93-4.395,22.461
	c-4.883,6.18-13.184,9.277-24.902,9.277h-5.859c-1.633-1.633-2.609-2.93-2.93-3.906c-2.609-0.977-4.723-1.793-6.348-2.441
	c-1.633-0.656-3.098-1.953-4.395-3.906c-4.234-1.953-7.652-3.578-10.254-4.883l-4.395-2.441c0-3.578,0-5.531,0-5.859
	c-2.281-2.93-3.99-6.18-5.127-9.766c-1.145-3.578-2.037-7.156-2.686-10.742c-0.656-2.93-1.389-5.691-2.197-8.301
	c-0.816-2.602-1.877-4.883-3.174-6.836c-0.656-18.875,1.137-34.828,5.371-47.852c4.227-13.016,8.621-25.551,13.184-37.598
	c2.602-6.508,5.203-13.1,7.813-19.775c2.602-6.668,4.883-13.588,6.836-20.752l4.395-4.883c2.273-5.203,4.15-9.521,5.615-12.939
	s3.006-6.912,4.639-10.498c0.977-2.273,1.869-4.471,2.686-6.592c0.809-2.113,1.541-3.982,2.197-5.615
	c-1.953,0-3.746,0.084-5.371,0.244c-1.633,0.168-3.258,0.412-4.883,0.732c-1.953,0.328-3.746,0.572-5.371,0.732
	c-1.633,0.168-3.258,0.244-4.883,0.244c-2.281,0-3.906-0.16-4.883-0.488c-3.586,1.633-7.492,2.441-11.719,2.441h-4.883
	c-0.977,0-1.877-0.076-2.686-0.244c-0.816-0.16-1.549-0.244-2.197-0.244c-3.258,0-5.859,0.488-7.813,1.465c-3.906,0-7.652,0-11.23,0
	h-4.883c-0.656,0-1.465,0.084-2.441,0.244c-0.977,0.168-1.793,0.244-2.441,0.244c-2.281,0-4.723-0.244-7.324-0.732
	c-2.609-0.488-5.371-1.541-8.301-3.174c-3.906-5.203-6.516-7.973-7.813-8.301l-4.395-5.859c-0.328-1.953-0.816-3.822-1.465-5.615
	c-0.656-1.785-1.305-3.822-1.953-6.104c-1.305-3.25-2.525-6.752-3.662-10.498c-1.145-3.738-1.709-8.217-1.709-13.428
	c0.32-2.602,0.977-4.555,1.953-5.859c0.977-1.297,1.785-2.441,2.441-3.418l1.465-7.324l6.348,0.488h13.672
	c10.414,0,20.996-0.404,31.738-1.221c10.742-0.809,21.805-1.709,33.203-2.686c6.508-0.648,13.1-1.297,19.775-1.953
	c6.668-0.648,13.588-1.297,20.752-1.953c1.297-2.93,2.602-5.691,3.906-8.301l4.883-2.441c5.859-0.32,10.01,0.412,12.451,2.197
	c2.441,1.793,4.471,3.502,6.104,5.127c7.156-0.648,14.404-1.381,21.729-2.197c7.324-0.809,14.725-1.869,22.217-3.174
	c11.063-1.625,22.217-3.09,33.447-4.395c11.23-1.297,22.049-1.953,32.471-1.953c4.555,0,8.949,0.168,13.184,0.488
	c4.227,0.328,8.133,0.816,11.719,1.465l4.883,3.418c0.977,1.953,2.357,3.746,4.15,5.371c1.785,1.633,3.662,3.258,5.615,4.883
	c3.906,3.586,7.813,7.813,11.719,12.695s5.371,12.047,4.395,21.484c-2.609,3.906-4.563,6.188-5.859,6.836l-4.395,5.859l-4.883-0.488
	c-1.953,0-3.746,0.244-5.371,0.732c-1.633,0.488-3.258,1.061-4.883,1.709c-1.305,0.656-2.609,1.221-3.906,1.709
	c-1.305,0.488-2.77,0.9-4.395,1.221c-2.93,0-5.295-0.076-7.08-0.244C2234.82,247.55,2232.951,247.466,2230.998,247.466z"/>
<g>
	<path fill="#FEBF50" d="M2193.803,470.664c0.33,1.329,0.579,2.573,0.746,3.73c0.162,1.161,0.411,2.404,0.746,3.73
		c-0.664,1.658-1.244,3.274-1.741,4.849c-0.497,1.578-0.995,3.108-1.492,4.601c-0.497,1.161-0.832,1.907-0.995,2.238
		c-0.166,0.334-0.248,0.583-0.248,0.746c0,0.166,0.038,0.373,0.124,0.621c0.082,0.249,0.124,0.957,0.124,2.114l-0.994,2.984
		c-0.832,1.161-1.826,2.075-2.984,2.735c-1.161,0.664-2.324,1.243-3.481,1.74c-0.334,0.331-0.831,0.622-1.492,0.871
		c-0.663,0.248-1.161,0.535-1.491,0.87l-0.746,2.983l-3.233,0.498c-2.821,0.66-5.222,0.994-7.212,0.994h-2.983
		c-1.989-1.826-3.567-3.232-4.726-4.228c-1.16-0.994-2.404-1.907-3.729-2.735c-1.655-2.32-2.569-4.017-2.735-5.098
		c-0.163-1.076-0.412-2.113-0.746-3.108c-0.331-2.152-0.746-3.563-1.243-4.228l-3.481-3.481l2.984-2.238l-2.736-4.725
		c1.99-1.492,3.481-2.568,4.477-3.232c0.994-0.66,1.826-1.368,2.486-2.114s1.406-1.698,2.238-2.859
		c0.828-1.158,2.152-3.066,3.979-5.72l2.238-3.232l3.232,1.74c0.661,0.497,2.114,0.956,4.353,1.368
		c2.238,0.415,4.185,0.788,5.844,1.119c2.817,0.831,5.471,1.453,7.958,1.864c2.486,0.416,4.476,1.286,5.968,2.611L2193.803,470.664z
		"/>
	<path fill="#FEBF50" d="M2360.664,425.654c-0.167,1.989,0,3.896,0.497,5.72c0.497,1.826,1.119,3.605,1.864,5.347
		c0.746,1.74,1.45,3.523,2.114,5.346c0.66,1.827,1.157,3.648,1.492,5.472c0.331,2.323,0.331,4.849,0,7.584
		c-0.335,2.735-0.913,5.389-1.741,7.958c-0.831,2.572-1.907,4.892-3.232,6.963c-1.329,2.075-2.902,3.605-4.725,4.601
		c-2.324,2.983-5.141,5.308-8.455,6.963c-3.318,1.658-6.384,3.647-9.201,5.968c-1.826,1.161-3.854,1.989-6.093,2.487
		c-2.237,0.497-4.519,0.994-6.838,1.491c-1.827,0.995-3.979,2.032-6.466,3.109c-2.486,1.08-5.06,2.074-7.709,2.983
		c-2.653,0.913-5.309,1.578-7.958,1.989c-2.653,0.416-4.974,0.54-6.963,0.373c-4.974,1.823-9.822,3.023-14.547,3.606
		c-4.726,0.579-10.238,0.206-16.537-1.119c-5.968,0.828-11.481,0.579-16.537-0.746c-5.06-1.329-9.535-3.439-13.429-6.342
		c-3.896-2.897-7.297-6.379-10.195-10.444c-2.902-4.061-5.265-8.33-7.088-12.807c-1.328-9.449-0.994-18.028,0.995-25.737
		s4.85-14.835,8.579-21.387c3.73-6.548,7.996-12.597,12.807-18.153c4.808-5.553,9.45-10.98,13.926-16.288
		c0.995,0.334,1.779,0.291,2.363-0.124c0.579-0.412,1.119-0.995,1.616-1.741c0.497-0.746,1.033-1.45,1.616-2.114
		c0.58-0.66,1.282-1.077,2.113-1.244c1.158-2.487,2.86-4.352,5.099-5.595c2.237-1.243,4.017-3.022,5.347-5.346
		c1.492-0.331,2.735-0.828,3.729-1.492c0.995-0.66,1.947-1.406,2.86-2.238c0.908-0.828,1.865-1.616,2.859-2.362
		s2.152-1.282,3.481-1.616v-2.735c2.984-1.325,5.18-2.86,6.59-4.601c1.406-1.741,3.108-3.854,5.098-6.341
		c1.492-0.163,2.693-0.249,3.606-0.249c0.908,0,2.276-0.163,4.103-0.498c1.325-2.319,2.525-4.06,3.606-5.222
		c1.076-1.158,2.692-2.401,4.849-3.73c1.989,0.995,4.186,1.659,6.59,1.989c2.401,0.334,4.515,1.411,6.341,3.233
		c0.163,1.659,0.661,2.945,1.492,3.854c0.828,0.913,1.741,1.741,2.736,2.487c0.994,0.746,1.947,1.535,2.859,2.362
		c0.909,0.832,1.53,1.989,1.865,3.481c0.66,0.167,1.119,0.086,1.367-0.249c0.249-0.33,0.704-0.411,1.368-0.249
		c0.497,2.324,1.077,3.854,1.74,4.601c0.661,0.746,1.325,2.2,1.989,4.352c-0.831,1.658-1.453,3.357-1.864,5.098
		c-0.415,1.741-1.454,3.026-3.108,3.854c-0.167,1.161,0.162,1.783,0.994,1.865c0.828,0.085,1.326,0.54,1.492,1.368
		c0.163,1.492-0.086,2.572-0.746,3.232c3.979,6.466,7.543,13.304,10.693,20.516C2353.117,412.35,2356.685,419.188,2360.664,425.654z
		 M2329.579,449.278c0.66-1.823,1.53-3.314,2.611-4.477c1.077-1.157,1.698-2.897,1.864-5.222c-0.831-1.325-1.328-2.362-1.491-3.108
		c-0.167-0.746-0.249-1.947-0.249-3.605c-3.648-5.137-6.8-10.651-9.449-16.537c-2.654-5.883-5.638-11.397-8.953-16.537
		c-0.334,0.664-0.912,1.329-1.74,1.989c-0.832,0.664-1.74,0.497-2.735-0.497c-0.335,1.329-0.913,2.28-1.741,2.859
		c-0.832,0.583-1.74,0.832-2.735,0.746c-0.994-0.082-2.031-0.331-3.108-0.746c-1.08-0.411-2.031-0.952-2.859-1.616
		c-4.811,3.816-9.616,7.546-14.424,11.19c-4.811,3.648-9.118,7.876-12.931,12.683c-0.664,0.334-1.08,0.459-1.243,0.373
		c-0.167-0.082-0.664,0.042-1.492,0.373c-1.329,3.15-2.945,6.01-4.85,8.579c-1.907,2.572-3.771,5.184-5.595,7.833
		c-1.827,2.653-3.399,5.471-4.725,8.455c-1.329,2.984-2.075,6.466-2.238,10.444c2.817,2.324,6.131,3.73,9.947,4.228
		c3.812,0.497,7.747,0.583,11.812,0.249c4.061-0.331,8.04-0.871,11.937-1.616c3.894-0.746,7.499-1.119,10.817-1.119
		c6.963-1.655,12.932-3.854,17.904-6.59C2318.886,454.873,2324.108,452.1,2329.579,449.278z"/>
	<path fill="#FEBF50" d="M2415.869,474.395c-1.826,6.632-3.442,11.649-4.849,15.045c-1.41,3.399-3.524,6.925-6.341,10.568
		c-2.156-0.33-3.648-0.082-4.477,0.746c-0.832,0.828-1.741,1.574-2.735,2.238c-1.492,0.331-2.573,0.331-3.233,0
		c-0.664-0.334-1.243-0.707-1.74-1.119c-0.498-0.415-1.119-0.832-1.865-1.243s-1.865-0.622-3.357-0.622
		c-0.334-1.325-0.707-2.568-1.119-3.729c-0.415-1.158-1.534-1.574-3.356-1.244c0.331-1.325,0.411-2.444,0.249-3.356
		c-0.167-0.909-0.373-1.741-0.622-2.487s-0.459-1.492-0.622-2.237c-0.166-0.746-0.086-1.699,0.249-2.86
		c-0.832,0-1.492-0.579-1.989-1.74c-0.498-1.158-1.081-2.32-1.741-3.481c0.497-2.984,0.995-5.802,1.492-8.455
		c0.497-2.65,1.119-5.137,1.865-7.461c0.746-2.319,1.368-4.639,1.865-6.963c0.497-2.319,0.248-4.725-0.746-7.211
		c0.66,0.497,1.157,0.373,1.491-0.373c0.331-0.746,0.58-1.741,0.746-2.984c0.163-1.243,0.249-2.486,0.249-3.73
		c0-1.243-0.086-2.276-0.249-3.108c1.655-4.31,3.023-8.742,4.104-13.304c1.077-4.559,2.071-9.077,2.984-13.553
		c0.908-4.477,1.865-8.866,2.859-13.18c0.995-4.31,2.32-8.289,3.979-11.937c1.823-0.331,3.855-0.125,6.093,0.622
		c2.238,0.746,3.606,1.702,4.104,2.86c4.31-3.315,8.12-7.336,11.438-12.061c3.315-4.725,6.715-9.325,10.196-13.801
		s7.336-8.455,11.563-11.937s9.574-5.552,16.039-6.217c3.315,2.487,7.002,5.016,11.066,7.584c4.061,2.573,7.418,5.93,10.071,10.071
		c1.325,0.665,2.444,1.368,3.357,2.114c0.909,0.746,2.028,1.534,3.356,2.362v2.984c1.99,1.827,3.606,3.94,4.85,6.341
		c1.243,2.405,2.362,4.973,3.357,7.709c0.994,2.735,1.989,5.471,2.984,8.206c0.994,2.735,2.152,5.346,3.48,7.833
		c-0.334,0.832-0.497,1.534-0.497,2.113c0,0.583,0.124,1.205,0.373,1.865c0.249,0.664,0.455,1.329,0.622,1.989
		c0.162,0.664,0.162,1.578,0,2.735c-0.498,7.298-2.86,13.18-7.088,17.656c-4.227,4.477-9.325,8.168-15.293,11.066
		c-5.969,2.901-12.352,5.347-19.148,7.336c-6.8,1.989-12.931,4.146-18.401,6.465c0,0.664,0.287,0.995,0.87,0.995
		c0.579,0,0.784,0.415,0.621,1.243c3.979,2.487,7.126,4.477,9.45,5.969c2.32,1.491,4.515,2.735,6.59,3.729
		c2.071,0.995,4.31,1.865,6.714,2.611c2.401,0.746,5.759,1.616,10.072,2.611c4.309,0.994,7.666,1.783,10.07,2.362
		c2.401,0.583,4.602,1.08,6.59,1.492c1.99,0.415,4.018,0.746,6.093,0.994c2.071,0.249,5.013,0.54,8.828,0.871
		c1.492,1.491,2.774,3.274,3.854,5.346c1.077,2.075,1.779,4.146,2.114,6.218c0.33,2.075,0.411,4.064,0.248,5.968
		c-0.166,1.907-0.746,3.443-1.74,4.601c0.163,0.497,0.536,0.707,1.119,0.621c0.579-0.082,1.2-0.038,1.864,0.125
		c-0.994,0.664-1.826,1.492-2.486,2.486c-0.664,0.995-1.329,1.989-1.989,2.984c-0.664,0.995-1.41,1.865-2.238,2.611
		c-0.832,0.746-1.989,1.201-3.481,1.367c-5.14,1.989-11.605,2.114-19.396,0.373c-7.795-1.74-17.656-4.935-29.593-9.574
		c-5.968-2.319-10.817-4.352-14.547-6.092c-3.73-1.741-6.963-3.481-9.698-5.223c-2.736-1.74-5.223-3.605-7.461-5.595
		S2419.017,477.216,2415.869,474.395z M2451.43,389.099c-1.826,2.653-3.854,5.059-6.092,7.211c-2.238,2.156-4.395,4.352-6.466,6.59
		c-2.075,2.238-3.94,4.725-5.595,7.46c-1.659,2.735-2.822,5.93-3.482,9.574c5.802-0.66,11.852-2.276,18.154-4.849
		c6.299-2.569,12.267-5.013,17.904-7.336c-0.664-5.137-2.448-9.283-5.347-12.434C2457.604,392.169,2454.577,390.094,2451.43,389.099
		z"/>
	<path fill="#FEBF50" d="M2689.91,455.495c-3.979,7.13-9.201,12.644-15.667,16.537c-6.466,3.896-13.595,7.13-21.386,9.698
		c-7.795,2.572-15.958,4.85-24.495,6.839c-8.54,1.989-16.785,4.562-24.743,7.709c-2.323,0-4.352,0.086-6.092,0.248
		c-1.741,0.167-3.4,0.373-4.974,0.622c-1.578,0.249-3.108,0.497-4.601,0.746c-1.492,0.248-3.15,0.459-4.974,0.621
		c-0.664-0.162-1.081-0.038-1.243,0.373c-0.167,0.416-0.416,0.789-0.746,1.119c-2.821,0.498-5.347,0.746-7.585,0.746
		s-4.103,0-5.595,0c-1.99,0-4.021,0.287-6.093,0.871c-2.075,0.579-3.94,0.784-5.596,0.621c-12.434-0.664-22.174-5.098-29.219-13.304
		c-7.049-8.207-10.984-19.604-11.813-34.193c0.163-0.828,0.038-1.325-0.373-1.492c-0.415-0.162-0.788-0.411-1.119-0.746
		c0-1.654,0.207-3.065,0.622-4.228c0.411-1.157,0.455-2.649,0.124-4.476c4.31-9.115,9.201-17.614,14.672-25.489
		c5.471-7.872,12.019-14.796,19.646-20.765c1.158-0.994,2.152-1.989,2.984-2.984c0.828-0.995,1.616-1.989,2.362-2.984
		c0.746-0.995,1.616-1.865,2.611-2.611c0.994-0.746,2.237-1.282,3.729-1.616c3.481-3.979,7.623-7.624,12.434-10.942
		c4.808-3.315,9.861-6.504,15.17-9.574c5.304-3.065,10.568-6.131,15.791-9.201c5.222-3.065,9.985-6.504,14.299-10.32
		c1.822,0.832,3.146,1.081,3.979,0.746c0.828-0.33,1.74-0.33,2.735,0c1.157,2.487,2.774,4.228,4.849,5.222
		c2.072,0.995,4.143,2.032,6.217,3.108c2.072,1.081,4.018,2.363,5.845,3.854c1.822,1.492,3.232,3.481,4.228,5.968
		c-0.995,0-1.454,0.373-1.368,1.119c0.082,0.746,0.287,1.492,0.622,2.238c0.33,0.746,0.455,1.492,0.373,2.238
		c-0.086,0.746-0.708,1.119-1.865,1.119c0.163,0.832,0.703,1.286,1.616,1.368c0.909,0.086,1.368,0.54,1.368,1.368
		c0,0.832-0.211,1.492-0.622,1.989c-0.415,0.498-0.459,1.33-0.124,2.487c-3.318,2.156-7.006,4.228-11.066,6.217
		c-4.064,1.99-8.292,4.104-12.683,6.341c-4.394,2.238-8.952,4.643-13.677,7.211c-4.725,2.573-9.325,5.514-13.802,8.828
		c-4.476,3.318-9.038,7.005-13.677,11.066c-4.643,4.064-9.119,8.33-13.429,12.807c-4.313,4.477-8.373,9.076-12.185,13.802
		c-3.816,4.725-7.049,9.411-9.699,14.05c0.331,0.832,0.704,1.453,1.119,1.865c0.412,0.415,0.785,1.037,1.119,1.865
		c5.305,0.334,10.234,0.291,14.797-0.125c4.558-0.411,9.158-0.124,13.801,0.871c0.498-0.331,0.828-0.828,0.995-1.492
		c0.163-0.66,0.579-1.158,1.243-1.492c9.449-0.995,18.235-2.525,26.359-4.601c8.121-2.071,16.412-4.266,24.867-6.59
		c-1.328-0.497-2.528-0.952-3.605-1.368c-1.08-0.411-2.113-0.784-3.108-1.119c-0.832-0.828-0.788-1.53,0.124-2.113
		c0.909-0.579,1.699-1.201,2.363-1.865c-2.324-1.325-4.189-2.984-5.596-4.974c-1.41-1.989-2.28-4.639-2.611-7.957
		c0.995-0.828,1.492-1.823,1.492-2.984c0-1.157-0.497-2.071-1.492-2.735c-0.664-0.163-1.08-0.163-1.243,0
		c-0.167,0.166-0.291,0.415-0.373,0.746c-0.086,0.334-0.21,0.621-0.373,0.87c-0.167,0.249-0.583,0.21-1.243-0.124
		c0.163-1.492,0.536-2.735,1.119-3.73c0.579-0.994,1.033-2.152,1.367-3.481l17.159-11.439c1.822,1.33,4.061,2.778,6.714,4.353
		c2.65,1.577,5.429,3.15,8.331,4.725c2.897,1.578,5.882,3.15,8.952,4.725c3.066,1.578,5.926,3.108,8.579,4.601
		c2.32,0.995,4.391,2.324,6.217,3.979c1.823,1.659,3.563,3.357,5.223,5.099c1.654,1.74,3.356,3.442,5.098,5.098
		c1.741,1.658,3.769,3.069,6.093,4.228c-0.335,2.155-0.249,3.896,0.248,5.222C2689.91,451.851,2690.072,453.506,2689.91,455.495z"/>
</g>
<g>
	<path d="M2167.818,443.927c0.33,1.329,0.579,2.572,0.746,3.73c0.162,1.161,0.411,2.404,0.746,3.729
		c-0.664,1.659-1.244,3.275-1.741,4.85c-0.497,1.578-0.994,3.108-1.491,4.601c-0.498,1.161-0.832,1.907-0.995,2.238
		c-0.167,0.334-0.249,0.583-0.249,0.746c0,0.166,0.039,0.373,0.125,0.621c0.082,0.249,0.124,0.956,0.124,2.114l-0.995,2.983
		c-0.832,1.162-1.826,2.075-2.984,2.735c-1.161,0.664-2.323,1.244-3.48,1.741c-0.335,0.331-0.832,0.622-1.492,0.87
		c-0.664,0.249-1.162,0.536-1.492,0.87l-0.746,2.984l-3.232,0.497c-2.822,0.661-5.223,0.995-7.212,0.995h-2.984
		c-1.989-1.826-3.567-3.232-4.725-4.228c-1.161-0.994-2.405-1.907-3.73-2.735c-1.655-2.32-2.568-4.018-2.735-5.098
		c-0.163-1.077-0.411-2.114-0.746-3.108c-0.33-2.152-0.746-3.563-1.243-4.228l-3.481-3.481l2.984-2.238l-2.736-4.725
		c1.99-1.492,3.482-2.569,4.477-3.233c0.995-0.66,1.826-1.367,2.487-2.113c0.66-0.746,1.406-1.698,2.237-2.859
		c0.828-1.158,2.152-3.066,3.979-5.72l2.237-3.233l3.233,1.741c0.66,0.497,2.113,0.956,4.352,1.367
		c2.238,0.416,4.186,0.789,5.844,1.119c2.817,0.832,5.472,1.454,7.958,1.865c2.486,0.415,4.477,1.286,5.968,2.611L2167.818,443.927z
		"/>
	<path d="M2334.68,398.917c-0.167,1.989,0,3.896,0.497,5.719c0.497,1.827,1.119,3.606,1.865,5.347
		c0.746,1.741,1.45,3.524,2.113,5.347c0.661,1.826,1.158,3.648,1.492,5.471c0.331,2.324,0.331,4.85,0,7.585
		c-0.334,2.735-0.912,5.389-1.74,7.957c-0.832,2.573-1.907,4.892-3.233,6.963c-1.329,2.076-2.901,3.606-4.725,4.601
		c-2.324,2.984-5.141,5.309-8.455,6.963c-3.318,1.659-6.383,3.648-9.201,5.969c-1.826,1.161-3.854,1.989-6.092,2.486
		c-2.238,0.498-4.519,0.995-6.839,1.492c-1.827,0.995-3.979,2.032-6.466,3.108c-2.486,1.081-5.059,2.075-7.709,2.984
		c-2.653,0.912-5.308,1.578-7.957,1.989c-2.654,0.415-4.974,0.54-6.963,0.373c-4.974,1.823-9.823,3.022-14.548,3.605
		c-4.725,0.58-10.238,0.207-16.537-1.119c-5.968,0.828-11.481,0.58-16.536-0.745c-5.06-1.33-9.536-3.439-13.429-6.342
		c-3.897-2.898-7.298-6.38-10.196-10.444c-2.902-4.061-5.264-8.33-7.087-12.807c-1.329-9.45-0.995-18.029,0.995-25.738
		c1.989-7.709,4.849-14.834,8.579-21.386c3.729-6.548,7.996-12.597,12.807-18.153c4.807-5.553,9.449-10.98,13.926-16.288
		c0.995,0.334,1.779,0.292,2.362-0.125c0.579-0.412,1.119-0.995,1.616-1.741s1.033-1.449,1.616-2.114
		c0.58-0.66,1.282-1.076,2.114-1.243c1.157-2.487,2.859-4.352,5.098-5.595c2.238-1.244,4.018-3.023,5.347-5.347
		c1.492-0.33,2.735-0.828,3.73-1.492c0.994-0.66,1.946-1.406,2.859-2.238c0.909-0.828,1.865-1.617,2.859-2.363
		c0.995-0.746,2.152-1.282,3.481-1.616v-2.735c2.984-1.325,5.181-2.86,6.591-4.601c1.406-1.741,3.107-3.854,5.098-6.341
		c1.492-0.163,2.692-0.249,3.605-0.249c0.908,0,2.276-0.163,4.104-0.497c1.325-2.32,2.525-4.061,3.605-5.223
		c1.076-1.157,2.693-2.401,4.85-3.73c1.988,0.995,4.185,1.659,6.59,1.989c2.4,0.334,4.514,1.411,6.341,3.233
		c0.163,1.659,0.66,2.946,1.492,3.854c0.828,0.913,1.74,1.741,2.735,2.487c0.994,0.746,1.947,1.535,2.859,2.362
		c0.909,0.832,1.531,1.99,1.865,3.481c0.66,0.167,1.119,0.086,1.367-0.249c0.249-0.33,0.704-0.412,1.368-0.249
		c0.497,2.324,1.077,3.854,1.741,4.6c0.66,0.746,1.325,2.2,1.989,4.352c-0.832,1.659-1.454,3.357-1.865,5.098
		c-0.415,1.741-1.454,3.027-3.108,3.854c-0.167,1.162,0.163,1.784,0.994,1.865c0.828,0.086,1.326,0.54,1.492,1.368
		c0.163,1.492-0.086,2.573-0.746,3.233c3.979,6.465,7.543,13.304,10.693,20.516C2327.133,385.612,2330.701,392.451,2334.68,398.917z
		 M2303.595,422.541c0.661-1.823,1.531-3.315,2.611-4.477c1.077-1.157,1.698-2.898,1.865-5.222
		c-0.832-1.326-1.329-2.362-1.492-3.108c-0.167-0.746-0.249-1.947-0.249-3.606c-3.647-5.136-6.8-10.65-9.449-16.537
		c-2.653-5.882-5.638-11.397-8.952-16.537c-0.335,0.664-0.913,1.33-1.741,1.99c-0.832,0.664-1.74,0.497-2.735-0.498
		c-0.334,1.329-0.912,2.28-1.74,2.86c-0.832,0.583-1.741,0.832-2.735,0.746c-0.995-0.082-2.032-0.331-3.109-0.746
		c-1.08-0.412-2.031-0.953-2.859-1.616c-4.811,3.815-9.616,7.546-14.423,11.19c-4.811,3.648-9.119,7.876-12.932,12.683
		c-0.663,0.334-1.08,0.458-1.243,0.372c-0.166-0.082-0.664,0.043-1.492,0.373c-1.329,3.151-2.945,6.011-4.849,8.58
		c-1.907,2.572-3.772,5.184-5.596,7.833c-1.826,2.653-3.399,5.471-4.725,8.455c-1.329,2.984-2.075,6.466-2.238,10.444
		c2.817,2.324,6.132,3.73,9.947,4.228c3.813,0.497,7.747,0.583,11.812,0.248c4.062-0.33,8.04-0.87,11.938-1.616
		c3.893-0.746,7.498-1.119,10.816-1.119c6.963-1.654,12.932-3.854,17.905-6.59S2298.124,425.362,2303.595,422.541z"/>
	<path d="M2389.886,447.657c-1.827,6.632-3.443,11.649-4.85,15.045c-1.41,3.399-3.523,6.924-6.341,10.568
		c-2.156-0.331-3.648-0.082-4.477,0.746c-0.832,0.828-1.74,1.574-2.735,2.238c-1.492,0.33-2.572,0.33-3.232,0
		c-0.664-0.335-1.243-0.708-1.741-1.119c-0.497-0.415-1.119-0.832-1.865-1.243c-0.746-0.412-1.865-0.622-3.356-0.622
		c-0.335-1.325-0.708-2.568-1.119-3.73c-0.415-1.157-1.534-1.573-3.357-1.243c0.331-1.325,0.411-2.444,0.249-3.357
		c-0.167-0.908-0.373-1.74-0.622-2.486s-0.459-1.492-0.622-2.238c-0.166-0.746-0.086-1.698,0.249-2.859
		c-0.832,0-1.492-0.579-1.989-1.741c-0.497-1.157-1.08-2.319-1.74-3.481c0.497-2.983,0.994-5.801,1.491-8.455
		c0.497-2.649,1.119-5.136,1.865-7.46c0.746-2.32,1.368-4.639,1.865-6.963c0.497-2.32,0.249-4.725-0.746-7.212
		c0.66,0.498,1.157,0.373,1.492-0.373c0.331-0.745,0.579-1.74,0.746-2.983c0.163-1.243,0.249-2.487,0.249-3.73
		s-0.086-2.276-0.249-3.108c1.655-4.31,3.022-8.742,4.103-13.304c1.077-4.559,2.072-9.077,2.984-13.553
		c0.909-4.476,1.865-8.867,2.859-13.18c0.995-4.31,2.32-8.288,3.979-11.937c1.823-0.33,3.854-0.125,6.093,0.622
		s3.605,1.702,4.103,2.86c4.31-3.314,8.121-7.336,11.439-12.061c3.314-4.725,6.714-9.326,10.195-13.802s7.336-8.455,11.563-11.936
		c4.228-3.482,9.574-5.553,16.04-6.217c3.314,2.487,7.001,5.017,11.065,7.585c4.062,2.572,7.418,5.929,10.072,10.071
		c1.325,0.665,2.443,1.368,3.356,2.114c0.909,0.746,2.028,1.535,3.357,2.362v2.984c1.989,1.827,3.605,3.94,4.849,6.341
		c1.244,2.405,2.363,4.974,3.357,7.709s1.989,5.471,2.984,8.206c0.994,2.736,2.152,5.347,3.481,7.833
		c-0.335,0.832-0.497,1.534-0.497,2.114c0,0.583,0.124,1.205,0.373,1.865c0.248,0.664,0.455,1.329,0.621,1.989
		c0.163,0.664,0.163,1.578,0,2.735c-0.497,7.297-2.859,13.18-7.087,17.656c-4.228,4.476-9.325,8.168-15.294,11.065
		c-5.968,2.902-12.352,5.347-19.148,7.336c-6.8,1.99-12.931,4.146-18.401,6.466c0,0.664,0.287,0.995,0.87,0.995
		c0.58,0,0.785,0.415,0.622,1.243c3.979,2.486,7.126,4.477,9.449,5.968c2.32,1.492,4.515,2.735,6.59,3.73
		c2.071,0.995,4.31,1.865,6.715,2.611c2.4,0.746,5.758,1.616,10.071,2.611c4.31,0.994,7.666,1.782,10.071,2.362
		c2.401,0.583,4.601,1.08,6.59,1.492c1.989,0.415,4.018,0.745,6.093,0.994c2.071,0.249,5.012,0.54,8.828,0.87
		c1.491,1.492,2.773,3.275,3.854,5.347c1.077,2.075,1.779,4.146,2.114,6.217c0.331,2.075,0.411,4.064,0.249,5.969
		c-0.167,1.907-0.746,3.442-1.741,4.601c0.163,0.497,0.536,0.707,1.119,0.621c0.579-0.082,1.201-0.038,1.865,0.125
		c-0.995,0.663-1.827,1.491-2.487,2.486c-0.664,0.995-1.329,1.989-1.989,2.984c-0.664,0.994-1.409,1.865-2.237,2.61
		c-0.832,0.746-1.99,1.201-3.482,1.368c-5.14,1.989-11.605,2.113-19.396,0.373c-7.795-1.741-17.656-4.935-29.592-9.574
		c-5.969-2.32-10.818-4.352-14.548-6.093c-3.73-1.74-6.963-3.481-9.698-5.222c-2.735-1.741-5.223-3.605-7.461-5.596
		C2395.729,452.879,2393.032,450.479,2389.886,447.657z M2425.446,362.361c-1.827,2.654-3.854,5.059-6.093,7.211
		c-2.238,2.156-4.395,4.352-6.466,6.59c-2.075,2.238-3.94,4.725-5.595,7.46c-1.659,2.735-2.821,5.93-3.481,9.574
		c5.802-0.661,11.851-2.277,18.153-4.85c6.299-2.568,12.267-5.012,17.904-7.335c-0.664-5.137-2.448-9.283-5.347-12.434
		C2431.621,365.431,2428.593,363.356,2425.446,362.361z"/>
	<path d="M2663.926,428.758c-3.979,7.129-9.201,12.644-15.667,16.537c-6.466,3.896-13.595,7.129-21.386,9.698
		c-7.795,2.572-15.957,4.849-24.494,6.838c-8.541,1.99-16.786,4.563-24.744,7.709c-2.323,0-4.352,0.086-6.092,0.249
		c-1.741,0.167-3.399,0.373-4.974,0.622c-1.578,0.248-3.108,0.497-4.601,0.746c-1.492,0.248-3.15,0.458-4.974,0.621
		c-0.664-0.163-1.08-0.038-1.243,0.373c-0.167,0.415-0.415,0.788-0.746,1.119c-2.821,0.497-5.347,0.746-7.585,0.746
		c-2.237,0-4.103,0-5.595,0c-1.989,0-4.021,0.287-6.093,0.87c-2.075,0.58-3.94,0.785-5.595,0.622
		c-12.434-0.664-22.175-5.098-29.22-13.305c-7.049-8.206-10.983-19.603-11.812-34.192c0.162-0.828,0.038-1.325-0.373-1.492
		c-0.416-0.163-0.789-0.411-1.119-0.746c0-1.655,0.206-3.066,0.621-4.228c0.412-1.157,0.455-2.649,0.125-4.476
		c4.309-9.115,9.2-17.614,14.672-25.49c5.471-7.872,12.018-14.796,19.645-20.764c1.158-0.995,2.152-1.99,2.984-2.984
		c0.828-0.995,1.616-1.989,2.362-2.984s1.616-1.865,2.611-2.611c0.995-0.746,2.238-1.282,3.729-1.616
		c3.482-3.979,7.624-7.623,12.435-10.942c4.807-3.314,9.861-6.504,15.169-9.574c5.305-3.065,10.568-6.131,15.791-9.201
		c5.223-3.065,9.985-6.504,14.299-10.32c1.822,0.832,3.146,1.081,3.979,0.746c0.828-0.33,1.741-0.33,2.735,0
		c1.158,2.486,2.774,4.228,4.85,5.222c2.071,0.995,4.142,2.032,6.217,3.108c2.071,1.081,4.018,2.362,5.844,3.854
		c1.823,1.492,3.233,3.481,4.228,5.968c-0.994,0-1.453,0.373-1.367,1.119c0.082,0.746,0.287,1.492,0.621,2.238
		c0.331,0.746,0.455,1.492,0.373,2.238c-0.086,0.746-0.707,1.119-1.865,1.119c0.163,0.832,0.704,1.287,1.616,1.368
		c0.909,0.086,1.368,0.541,1.368,1.368c0,0.832-0.21,1.492-0.622,1.99c-0.415,0.497-0.458,1.329-0.124,2.487
		c-3.318,2.156-7.005,4.228-11.066,6.217c-4.064,1.989-8.292,4.103-12.682,6.341c-4.395,2.238-8.953,4.643-13.678,7.211
		c-4.725,2.573-9.325,5.513-13.801,8.828c-4.477,3.318-9.039,7.005-13.678,11.066c-4.643,4.065-9.119,8.331-13.429,12.807
		c-4.313,4.476-8.372,9.076-12.185,13.801c-3.816,4.726-7.049,9.411-9.699,14.051c0.331,0.831,0.704,1.453,1.119,1.865
		c0.412,0.415,0.785,1.036,1.119,1.864c5.305,0.335,10.234,0.291,14.797-0.124c4.558-0.411,9.158-0.124,13.801,0.87
		c0.498-0.33,0.828-0.828,0.995-1.492c0.163-0.66,0.579-1.157,1.243-1.491c9.45-0.995,18.235-2.525,26.359-4.601
		c8.121-2.072,16.413-4.267,24.868-6.59c-1.329-0.498-2.529-0.953-3.606-1.368c-1.08-0.411-2.113-0.784-3.107-1.119
		c-0.832-0.828-0.789-1.53,0.124-2.113c0.909-0.58,1.698-1.201,2.362-1.865c-2.324-1.325-4.189-2.984-5.596-4.974
		c-1.41-1.989-2.28-4.639-2.611-7.958c0.995-0.828,1.492-1.822,1.492-2.983c0-1.158-0.497-2.072-1.492-2.735
		c-0.663-0.163-1.08-0.163-1.242,0c-0.167,0.166-0.291,0.415-0.373,0.746c-0.086,0.334-0.211,0.621-0.373,0.87
		c-0.167,0.248-0.584,0.21-1.244-0.125c0.163-1.491,0.536-2.735,1.119-3.729c0.58-0.995,1.033-2.152,1.368-3.481l17.158-11.439
		c1.823,1.33,4.062,2.778,6.714,4.352c2.65,1.578,5.429,3.151,8.331,4.725c2.898,1.578,5.882,3.151,8.952,4.725
		c3.066,1.578,5.926,3.108,8.58,4.601c2.319,0.994,4.39,2.323,6.217,3.979c1.822,1.659,3.563,3.357,5.222,5.098
		c1.655,1.741,3.357,3.443,5.098,5.098c1.741,1.659,3.769,3.07,6.093,4.228c-0.334,2.156-0.249,3.897,0.248,5.223
		C2663.926,425.113,2664.089,426.769,2663.926,428.758z"/>
</g>
</svg>
