<?xml version="1.0" standalone="no"?>
<!DOCTYPE svg PUBLIC "-//W3C//DTD SVG 20010904//EN"
 "http://www.w3.org/TR/2001/REC-SVG-20010904/DTD/svg10.dtd">
<svg version="1.0" xmlns="http://www.w3.org/2000/svg"
 width="2248.000000pt" height="2248.000000pt" viewBox="0 0 2248.000000 2248.000000"
 preserveAspectRatio="xMidYMid meet">
<metadata>
Created by potrace 1.11, written by Peter Selinger 2001-2013
</metadata>
<g transform="translate(0.000000,2248.000000) scale(0.100000,-0.100000)"
fill="#000000" stroke="none">
<path d="M10610 22473 c-2721 -65 -4787 -619 -6328 -1695 -344 -240 -612 -466
-933 -787 -469 -470 -812 -919 -1146 -1499 -299 -521 -471 -966 -578 -1498
-72 -356 -104 -667 -112 -1089 -36 -1865 646 -4205 2037 -6985 837 -1673 1767
-3217 2868 -4760 1511 -2117 2833 -3456 3886 -3938 556 -254 1041 -289 1575
-113 816 269 1747 1035 2868 2359 418 494 983 1229 1368 1781 l120 172 42 -5
c425 -52 850 -20 1191 88 59 19 140 41 181 50 193 42 325 160 584 523 148 206
258 332 336 386 14 9 22 20 18 23 -4 4 -61 9 -128 10 -172 5 -197 24 -140 107
66 96 110 215 132 352 15 102 13 372 -6 501 -40 283 -161 644 -293 873 l-39
67 99 180 c1134 2042 1936 3926 2368 5562 211 796 330 1510 371 2212 15 256 6
826 -15 1038 -100 977 -372 1717 -880 2397 -173 232 -476 556 -718 771 -1059
935 -2653 1699 -4738 2270 -978 268 -2134 502 -3109 629 -174 22 -225 25 -485
23 -160 -1 -338 -3 -396 -5z m670 -1257 c30 -4 66 -9 80 -11 14 -2 61 -9 105
-15 44 -6 91 -12 105 -15 14 -2 43 -6 65 -9 155 -18 801 -131 1155 -202 385
-77 999 -219 1235 -284 39 -11 171 -47 295 -81 674 -184 1420 -437 1955 -664
129 -55 263 -114 333 -146 46 -22 86 -39 88 -39 12 0 504 -251 624 -318 1007
-561 1673 -1176 2015 -1861 147 -294 267 -678 310 -991 3 -25 10 -70 15 -100
5 -30 12 -86 16 -125 4 -38 8 -79 10 -90 24 -217 24 -740 -1 -1030 -9 -111
-18 -202 -20 -217 -2 -9 -7 -48 -10 -85 -4 -37 -9 -77 -11 -87 -2 -11 -6 -42
-9 -70 -3 -28 -8 -62 -10 -76 -2 -14 -15 -95 -29 -180 -116 -717 -357 -1597
-683 -2485 -181 -495 -467 -1185 -678 -1640 -48 -103 -90 -194 -125 -270 -143
-310 -562 -1143 -720 -1430 -15 -27 -49 -90 -75 -140 -27 -49 -107 -196 -178
-325 -72 -129 -151 -272 -176 -318 -46 -83 -46 -83 -81 -78 -19 3 -68 10 -108
16 -40 5 -115 16 -165 24 -51 8 -108 17 -127 20 -181 28 -475 92 -865 189
-271 68 -411 101 -1075 254 -946 217 -1250 326 -1740 621 -74 45 -148 89 -165
99 -16 10 -32 20 -35 23 -20 22 -590 382 -908 575 l-163 98 7 43 c5 35 2 46
-15 63 -13 13 -32 20 -50 19 -35 -3 -76 23 -84 52 -6 25 -18 20 323 155 436
173 865 321 1438 495 822 250 1400 470 1996 759 696 338 1355 867 1675 1344
221 331 364 713 431 1154 18 120 35 279 34 313 -8 189 -25 300 -70 450 -32
104 -33 109 -40 195 -4 48 -1 91 10 138 l16 67 -70 144 c-89 185 -183 411
-249 601 -165 470 -353 961 -457 1188 -199 435 -369 700 -603 936 l-63 65 -2
150 -1 151 -155 107 c-85 59 -226 155 -313 215 l-158 107 -87 121 c-143 198
-352 429 -512 564 -30 25 -66 56 -80 68 -57 52 -301 222 -685 476 -380 253
-673 453 -685 468 -11 14 -50 29 -77 29 -89 0 -477 -80 -643 -132 -248 -78
-501 -198 -709 -336 -311 -206 -841 -708 -1136 -1077 -22 -27 -48 -59 -58 -70
-57 -62 -705 -942 -972 -1317 -340 -480 -491 -665 -770 -943 -77 -77 -176
-172 -220 -211 -96 -85 -254 -214 -262 -214 -3 0 -24 20 -46 46 -109 124 -399
254 -642 289 -71 10 -253 14 -300 6 l-39 -6 -73 -179 c-233 -571 -380 -1139
-607 -2331 -191 -1001 -314 -1533 -458 -1974 -53 -163 -156 -443 -203 -556
-14 -31 -16 -55 -10 -115 4 -41 9 -84 11 -95 10 -46 12 -356 3 -425 -21 -171
-79 -369 -121 -417 -25 -27 -59 -36 -92 -23 -33 12 -33 5 -1 -90 62 -182 75
-367 41 -586 -9 -57 -127 -534 -166 -669 -59 -206 -142 -545 -157 -644 -3 -18
-10 -51 -16 -73 l-12 -40 -95 174 c-546 1002 -1091 2130 -1392 2883 -22 55
-46 114 -53 130 -7 17 -38 93 -68 170 -426 1079 -735 2146 -866 2985 -11 69
-22 141 -25 160 -12 73 -45 358 -51 435 -3 44 -8 94 -10 110 -9 68 -18 322
-19 495 0 318 15 529 59 825 26 171 105 491 157 635 78 216 182 434 326 680
752 1292 1857 2174 3394 2711 493 171 1065 314 1663 413 182 30 261 42 400 61
62 8 352 44 400 49 92 10 259 25 330 31 39 3 95 7 125 10 145 13 277 21 455
31 66 3 147 7 180 9 33 2 197 6 365 10 168 4 306 8 307 9 7 5 309 -2 353 -8z
m1171 -5076 c244 -101 487 -271 718 -501 259 -258 403 -500 520 -869 24 -78
67 -265 76 -335 4 -27 9 -57 11 -66 5 -17 4 -18 -381 -176 -286 -118 -894
-365 -1205 -490 -157 -63 -294 -118 -305 -123 -30 -14 -255 -93 -380 -135
-388 -128 -860 -239 -1190 -280 -27 -4 -58 -9 -67 -11 -23 -7 -23 5 1 114 76
339 195 628 370 902 112 174 295 417 406 539 179 198 351 376 634 655 307 304
539 569 666 764 15 23 33 42 40 42 7 0 45 -14 86 -30z m-3369 -8526 c604 -540
812 -710 1138 -929 129 -87 387 -245 495 -304 22 -12 85 -46 140 -77 288 -157
654 -332 1005 -481 124 -52 234 -99 245 -104 72 -32 798 -310 1045 -399 58
-21 157 -57 220 -80 419 -153 864 -303 1244 -421 159 -49 291 -90 293 -92 7
-7 -411 -566 -664 -887 -274 -348 -627 -766 -878 -1040 -27 -30 -77 -84 -110
-120 -82 -90 -465 -472 -545 -544 -36 -32 -83 -75 -105 -96 -77 -71 -291 -246
-405 -331 -375 -281 -706 -441 -935 -454 -334 -19 -897 315 -1535 910 -162
152 -562 561 -672 687 -11 13 -34 39 -51 58 -18 19 -63 71 -102 115 -38 44
-72 82 -75 85 -3 3 -41 48 -85 100 -44 52 -82 97 -85 100 -8 8 -190 228 -235
285 -22 27 -48 59 -57 70 -177 209 -769 999 -1046 1394 l-62 89 61 59 c33 32
75 66 92 75 58 31 211 40 320 19 l49 -9 82 112 c296 399 508 797 635 1187 88
274 176 692 216 1024 3 22 10 42 17 44 24 8 56 52 62 86 7 34 40 68 63 63 6
-2 107 -89 225 -194z"/>
</g>
</svg>
