<?xml version="1.0" encoding="utf-8"?>
<!-- Generator: Adobe Illustrator 14.0.0, SVG Export Plug-In . SVG Version: 6.00 Build 43363)  -->
<!DOCTYPE svg PUBLIC "-//W3C//DTD SVG 1.1//EN" "http://www.w3.org/Graphics/SVG/1.1/DTD/svg11.dtd">
<svg version="1.1" id="Layer_3" xmlns="http://www.w3.org/2000/svg" xmlns:xlink="http://www.w3.org/1999/xlink" x="0px" y="0px"
	 width="240px" height="60px" viewBox="0 0 240 60" enable-background="new 0 0 240 60" xml:space="preserve">
<g>
	<path fill="#3927c1" d="M39.72,56c-14.336,0-26-11.663-26-26c0-14.336,11.664-26,26-26s26,11.664,26,26
		C65.72,44.337,54.056,56,39.72,56L39.72,56z"/>
	<path d="M39.72,5.5c13.509,0,24.5,10.991,24.5,24.5c0,13.51-10.991,24.5-24.5,24.5S15.22,43.51,15.22,30
		C15.22,16.491,26.21,5.5,39.72,5.5 M39.72,2.5c-15.188,0-27.5,12.313-27.5,27.5c0,15.188,12.313,27.5,27.5,27.5
		s27.5-12.312,27.5-27.5C67.22,14.813,54.907,2.5,39.72,2.5L39.72,2.5z"/>
</g>
<g>
	<path d="M25.033,22.648c0-1.519,0.291-2.944,0.871-4.277c0.581-1.332,1.37-2.498,2.369-3.497c0.999-1,2.165-1.789,3.495-2.37
		c1.332-0.581,2.758-0.871,4.277-0.871H240v7.351H36.045c-0.512,0-0.99,0.094-1.434,0.282c-0.444,0.188-0.832,0.448-1.166,0.781
		c-0.333,0.334-0.593,0.721-0.781,1.167c-0.188,0.441-0.282,0.921-0.282,1.433c0,0.513,0.095,0.995,0.282,1.448
		s0.448,0.846,0.781,1.178c0.333,0.334,0.721,0.594,1.166,0.782c0.443,0.188,0.922,0.281,1.434,0.281h7.35
		c1.52,0,2.95,0.286,4.29,0.858c1.34,0.57,2.509,1.357,3.508,2.357c0.999,0.998,1.784,2.167,2.355,3.507
		c0.572,1.342,0.858,2.771,0.858,4.293c0,1.518-0.286,2.945-0.858,4.275c-0.571,1.334-1.357,2.498-2.355,3.498
		c-0.999,0.998-2.168,1.789-3.508,2.369s-2.77,0.871-4.29,0.871H0.234v-7.352h43.16c0.513,0,0.99-0.094,1.434-0.281
		c0.444-0.189,0.833-0.451,1.166-0.783c0.333-0.33,0.593-0.721,0.781-1.164s0.281-0.922,0.281-1.434s-0.093-0.992-0.281-1.438
		c-0.188-0.441-0.448-0.83-0.781-1.164c-0.333-0.332-0.722-0.594-1.166-0.781s-0.921-0.281-1.434-0.281h-7.35
		c-1.519,0-2.945-0.289-4.277-0.871c-1.331-0.582-2.496-1.371-3.495-2.37c-0.999-0.999-1.788-2.169-2.369-3.509
		C25.324,25.598,25.033,24.168,25.033,22.648z"/>
</g>
<g>
	<path d="M67.184,59.925l3.644-30.927c0.039-0.301,0.203-0.458,0.49-0.471l3.938-0.132c0.287,0.024,0.43,0.157,0.43,0.396
		L75.294,31.3c0.601-0.994,1.257-1.755,1.97-2.283c0.711-0.528,1.515-0.792,2.409-0.792c0.895,0,1.656,0.148,2.282,0.444
		c0.627,0.295,1.139,0.685,1.538,1.17c0.398,0.484,0.722,1.066,0.97,1.745c0.457,1.208,0.686,2.859,0.686,4.954
		c0,2.094-0.147,3.871-0.441,5.329c-0.294,1.46-0.552,2.57-0.774,3.33c-0.222,0.763-0.519,1.543-0.892,2.35
		c-0.372,0.805-0.794,1.479-1.264,2.019c-1.071,1.231-2.332,1.85-3.78,1.85c-1.45,0-2.495-0.296-3.135-0.887
		c-0.639-0.592-1.188-1.484-1.645-2.681l-1.156,11.946c-0.014,0.3-0.184,0.458-0.509,0.47l-3.84,0.132
		C67.361,60.382,67.184,60.228,67.184,59.925z M80.231,37.073c0-2.993-0.835-4.489-2.507-4.489c-0.758,0-1.362,0.319-1.813,0.961
		c-0.45,0.643-0.843,1.956-1.175,3.943c-0.333,1.988-0.499,3.412-0.499,4.275c0,0.862,0.006,1.408,0.019,1.641
		c0.013,0.231,0.04,0.551,0.078,0.952c0.04,0.403,0.111,0.735,0.215,0.999c0.105,0.264,0.242,0.529,0.412,0.796
		c0.339,0.551,0.888,0.829,1.646,0.829c0.756,0,1.354-0.322,1.792-0.961c0.437-0.644,0.78-1.518,1.029-2.624
		C79.964,41.031,80.231,38.923,80.231,37.073z"/>
	<path d="M90.194,47.667c-0.308-0.747-0.516-1.488-0.627-2.224c-0.111-0.736-0.167-1.746-0.167-3.03
		c0-1.283,0.145-2.868,0.431-4.755c0.954-6.287,3.918-9.434,8.895-9.434c1.92,0,3.388,0.636,4.408,1.906
		c1.018,1.271,1.528,2.918,1.528,4.943c0,2.026-0.13,3.994-0.391,5.906c-0.04,0.34-0.243,0.516-0.607,0.529l-9.678,0.318
		c-0.014,0.189-0.02,0.442-0.02,0.756c0,1.422,0.259,2.548,0.774,3.378c0.516,0.829,1.296,1.245,2.341,1.245
		c1.044,0,2.014-0.148,2.909-0.441c0.895-0.299,1.421-0.445,1.578-0.445s0.293,0.051,0.411,0.151
		c0.117,0.101,0.176,0.238,0.176,0.415l-0.392,3.32c-0.013,0.189-0.049,0.312-0.107,0.368c-0.06,0.057-0.174,0.115-0.344,0.178
		c-1.58,0.442-3.102,0.662-4.564,0.662c-1.462,0-2.6-0.169-3.409-0.509c-0.811-0.339-1.46-0.778-1.949-1.311
		C90.898,49.06,90.5,48.418,90.194,47.667z M94.454,37.092l-0.176,1.207l5.113-0.243c0.222-0.013,0.365-0.051,0.431-0.114
		c0.196-0.188,0.294-0.706,0.294-1.556s-0.03-1.447-0.088-1.793c-0.059-0.347-0.16-0.701-0.304-1.066
		c-0.3-0.805-0.813-1.206-1.538-1.206c-0.725,0-1.296,0.119-1.714,0.356C95.545,33.233,94.872,34.704,94.454,37.092z"/>
	<path d="M115.867,28.885l-0.216,1.735c1.88-1.596,3.683-2.396,5.407-2.396c2.195,0,3.578,1.158,4.153,3.471
		c0.157,0.63,0.235,1.225,0.235,1.784c0,0.559-0.02,1.011-0.058,1.349l-1.88,15.813c-0.054,0.313-0.216,0.484-0.49,0.509
		l-3.958,0.131c-0.287-0.024-0.431-0.145-0.431-0.358l1.783-14.942c0.04-0.328,0.06-0.623,0.06-0.887
		c0-1.03-0.252-1.733-0.754-2.105c-0.503-0.369-1.14-0.557-1.911-0.557c-0.771,0-1.574,0.158-2.409,0.472L113.3,50.642
		c-0.052,0.313-0.215,0.484-0.489,0.509l-3.958,0.131c-0.287-0.024-0.431-0.145-0.431-0.358l2.586-21.944
		c0.053-0.277,0.216-0.427,0.49-0.453l3.839-0.132C115.69,28.407,115.867,28.57,115.867,28.885z"/>
	<path d="M132.42,28.471c0.3-2.769,0.496-4.199,0.587-4.293s0.229-0.147,0.412-0.16l3.741-0.133c0.354,0.026,0.53,0.183,0.53,0.472
		c-0.249,1.396-0.457,2.736-0.627,4.021l4.564-0.152c0.314,0.012,0.471,0.176,0.471,0.49l-0.549,3
		c-0.052,0.301-0.215,0.46-0.489,0.474l-4.486,0.17c-0.888,7.697-1.332,11.94-1.332,12.733c0,1.474,0.652,2.209,1.959,2.209
		c0.666,0,1.313-0.101,1.939-0.302c0.626-0.202,1.019-0.303,1.176-0.303c0.274,0,0.411,0.165,0.411,0.491l-0.411,3.302
		c-0.026,0.189-0.076,0.326-0.148,0.416c-0.071,0.088-0.391,0.192-0.959,0.32c-0.568,0.125-1.538,0.188-2.909,0.188
		c-2.011,0-3.501-0.45-4.467-1.35c-0.966-0.898-1.45-2.242-1.45-4.026c0-1.788,0.517-6.327,1.548-13.625l-1.92,0.076
		c-0.327-0.013-0.49-0.169-0.49-0.474l0.529-3.037c0.04-0.29,0.208-0.44,0.509-0.453L132.42,28.471z"/>
	<path d="M157.104,33.206l-2.097-0.209c-1.698,0-3.122,0.329-4.27,0.983l-1.94,16.641c-0.051,0.314-0.216,0.486-0.489,0.51
		l-3.957,0.15c-0.288-0.024-0.432-0.145-0.432-0.358l2.586-21.944c0.052-0.277,0.216-0.427,0.49-0.453l3.821-0.132
		c0.353,0.013,0.529,0.175,0.529,0.491l-0.235,1.943c0.836-0.818,1.646-1.456,2.429-1.915c0.783-0.46,1.57-0.689,2.361-0.689
		c0.79,0,1.394,0.031,1.812,0.095c0.274,0.05,0.412,0.226,0.412,0.526c0,0.87-0.15,2.158-0.451,3.869
		C157.607,33.042,157.417,33.206,157.104,33.206z"/>
	<path d="M166.674,51.414c-2.319,0-4.017-0.671-5.094-2.009c-1.078-1.342-1.617-3.293-1.617-5.858c0-1.195,0.138-2.757,0.413-4.681
		c0.273-1.925,0.528-3.323,0.763-4.198c0.235-0.874,0.567-1.729,0.999-2.566c0.431-0.837,0.94-1.525,1.528-2.066
		c1.292-1.208,3.043-1.811,5.25-1.811c3.135,0,5.166,1.106,6.092,3.321c0.497,1.182,0.745,2.612,0.745,4.292
		c0,1.679-0.134,3.419-0.401,5.219c-0.268,1.798-0.52,3.127-0.755,3.988c-0.235,0.862-0.565,1.704-0.989,2.529
		c-0.425,0.823-0.931,1.506-1.518,2.048C170.798,50.815,168.993,51.414,166.674,51.414z M170.132,43.148
		c0.143-0.665,0.329-1.915,0.558-3.744c0.228-1.83,0.343-3.187,0.343-4.066c0-2.139-0.803-3.207-2.41-3.207
		c-0.757,0-1.381,0.346-1.87,1.038c-0.491,0.692-0.886,1.843-1.186,3.453c-0.601,3.27-0.901,5.923-0.901,7.963
		c0,2.037,0.797,3.056,2.39,3.056c0.757,0,1.388-0.35,1.891-1.047C169.449,45.896,169.844,44.746,170.132,43.148z"/>
	<path d="M186.959,28.885l-0.216,1.735c1.881-1.596,3.683-2.396,5.407-2.396c2.194,0,3.578,1.158,4.153,3.471
		c0.157,0.63,0.235,1.225,0.235,1.784c0,0.559-0.02,1.011-0.059,1.349l-1.88,15.813c-0.052,0.313-0.215,0.484-0.49,0.509
		l-3.958,0.131c-0.287-0.024-0.432-0.145-0.432-0.358l1.784-14.942c0.039-0.328,0.058-0.623,0.058-0.887
		c0-1.03-0.251-1.733-0.753-2.105c-0.503-0.369-1.14-0.557-1.911-0.557s-1.574,0.158-2.41,0.472l-2.096,17.738
		c-0.053,0.313-0.215,0.484-0.489,0.509l-3.958,0.131c-0.287-0.024-0.431-0.145-0.431-0.358l2.586-21.944
		c0.052-0.277,0.216-0.427,0.49-0.453l3.84-0.132C186.784,28.407,186.959,28.57,186.959,28.885z"/>
	<path d="M207.844,28.885l-2.548,21.756c-0.026,0.174-0.072,0.301-0.138,0.376c-0.065,0.075-0.188,0.119-0.372,0.133l-3.937,0.131
		c-0.287-0.024-0.432-0.145-0.432-0.358l2.587-21.944c0.051-0.277,0.214-0.427,0.489-0.453l3.821-0.132
		C207.667,28.419,207.844,28.583,207.844,28.885z M205.668,26.338c-0.81,0-1.457-0.246-1.94-0.736
		c-0.484-0.49-0.724-1.123-0.724-1.896c0-0.774,0.323-1.465,0.969-2.076c0.646-0.609,1.375-0.915,2.184-0.915
		s1.467,0.245,1.969,0.735c0.502,0.492,0.754,1.123,0.754,1.897c0,0.773-0.333,1.466-0.999,2.075
		C207.215,26.033,206.478,26.338,205.668,26.338z"/>
	<path d="M225.16,28.809c0.288,0.102,0.432,0.34,0.432,0.717l-0.451,3.417c-0.026,0.252-0.206,0.378-0.539,0.378
		c-0.333,0-0.649-0.064-0.949-0.189c-1.267-0.541-2.319-0.811-3.155-0.811c-0.835,0-1.501,0.331-1.998,1
		c-0.496,0.665-0.895,1.62-1.195,2.868c-0.562,2.325-0.842,4.45-0.842,6.375c0,3.095,0.83,4.643,2.488,4.643
		c1.202,0,2.175-0.148,2.919-0.441c0.744-0.299,1.227-0.445,1.449-0.445c0.457,0,0.687,0.188,0.687,0.566l-0.412,3.32
		c-0.026,0.228-0.076,0.362-0.147,0.405c-0.072,0.044-0.167,0.092-0.284,0.141c-1.58,0.442-3.065,0.662-4.457,0.662
		c-1.39,0-2.487-0.169-3.291-0.509c-0.803-0.339-1.44-0.778-1.91-1.311c-0.47-0.535-0.849-1.183-1.136-1.934
		c-0.51-1.298-0.764-2.891-0.764-4.787c0-1.891,0.127-3.539,0.382-4.941c0.255-1.404,0.523-2.545,0.803-3.426
		c0.281-0.879,0.657-1.725,1.127-2.536c0.47-0.813,1.018-1.482,1.645-2.012c1.372-1.155,3.187-1.734,5.446-1.734
		C222.522,28.225,223.906,28.419,225.16,28.809z"/>
	<path d="M239.188,32.791l-2.215-0.094c-0.625,0-1.119,0.138-1.478,0.414c-0.36,0.276-0.54,0.679-0.54,1.199
		c0,0.522,0.098,1.097,0.294,1.725c0.261,0.846,0.715,1.825,1.36,2.945c0.647,1.119,1.096,1.912,1.343,2.377
		c0.758,1.445,1.136,2.822,1.136,4.131c0,1.901-0.578,3.362-1.733,4.387c-1.155,1.028-2.909,1.539-5.26,1.539
		c-1.162,0-2.089-0.06-2.782-0.18c-0.692-0.118-1.074-0.215-1.146-0.282c-0.072-0.07-0.108-0.18-0.108-0.331l0.51-3.49
		c0.026-0.313,0.14-0.473,0.343-0.473c0.202,0,0.591,0.07,1.166,0.209c0.575,0.137,1.078,0.208,1.508,0.208
		c1.593,0,2.39-0.611,2.39-1.831c0-0.867-0.192-1.681-0.577-2.434c-0.385-0.756-0.803-1.535-1.254-2.339
		c-0.452-0.806-0.8-1.451-1.049-1.935c-0.248-0.483-0.505-1.155-0.773-2.012c-0.268-0.854-0.402-1.659-0.402-2.415
		c0-1.76,0.545-3.181,1.636-4.263c1.091-1.083,2.681-1.623,4.771-1.623c1.346,0,2.396,0.062,3.154,0.188
		c0.324,0.051,0.489,0.214,0.489,0.491l-0.432,3.359C239.539,32.615,239.422,32.791,239.188,32.791z"/>
</g>
</svg>
