<?xml version="1.0" encoding="utf-8"?>
<!-- Generator: Adobe Illustrator 14.0.0, SVG Export Plug-In . SVG Version: 6.00 Build 43363)  -->
<!DOCTYPE svg PUBLIC "-//W3C//DTD SVG 1.1//EN" "http://www.w3.org/Graphics/SVG/1.1/DTD/svg11.dtd">
<svg version="1.1" xmlns="http://www.w3.org/2000/svg" xmlns:xlink="http://www.w3.org/1999/xlink" x="0px" y="0px"
	 width="369.75px" height="60px" viewBox="0 0 369.75 60" enable-background="new 0 0 369.75 60" xml:space="preserve">
<g id="Layer_3">
	<g>
		<path fill="#C1272D" d="M39.72,56c-14.336,0-26-11.663-26-26c0-14.336,11.664-26,26-26c14.336,0,26,11.664,26,26
			C65.72,44.337,54.056,56,39.72,56L39.72,56z"/>
		<path d="M39.72,5.5c13.509,0,24.5,10.991,24.5,24.5c0,13.51-10.991,24.5-24.5,24.5c-13.509,0-24.5-10.99-24.5-24.5
			C15.22,16.491,26.21,5.5,39.72,5.5 M39.72,2.5c-15.188,0-27.5,12.313-27.5,27.5c0,15.188,12.313,27.5,27.5,27.5
			s27.5-12.313,27.5-27.5C67.22,14.813,54.907,2.5,39.72,2.5L39.72,2.5z"/>
	</g>
	<g>
		<path d="M67.713,60.396c-0.352-0.015-0.529-0.168-0.529-0.472"/>
	</g>
	<rect x="68.75" y="13.495" fill="none" width="193.5" height="57.75"/>
	<text transform="matrix(1 0 0 1 68.75 43.2363)" font-family="'ContrailOne-Regular'" font-size="36">PENTERACTIV</text>
	<g>
		<path d="M85.766,26.836c-1.008,3.902-4.16,5.859-9.457,5.871l-1.107,9.967c-0.035,0.281-0.182,0.428-0.439,0.439l-3.691,0.193
			c-0.258-0.023-0.387-0.135-0.387-0.334l3.041-26.595c0.047-0.246,0.199-0.381,0.457-0.404c2.191-0.199,4.283-0.299,6.275-0.299
			c3.961,0,5.941,1.898,5.941,5.695C86.398,23.444,86.188,25.266,85.766,26.836z M77.75,19.77l-1.002,8.877
			c2.027,0,3.393-0.422,4.096-1.266s1.055-2.484,1.055-4.922c0-0.938-0.252-1.629-0.756-2.074s-1.148-0.668-1.934-0.668
			S77.938,19.735,77.75,19.77z"/>
		<path d="M99.881,31.213l-5.467,0.211l-0.826,7.207l6.732-0.229c0.305,0.012,0.457,0.164,0.457,0.457l-0.457,3.639
			c-0.023,0.246-0.176,0.398-0.457,0.457l-10.811,0.352c-0.258,0-0.387-0.111-0.387-0.334l3.041-26.595
			c0.047-0.246,0.199-0.381,0.457-0.404l9.633-0.334c0.293,0.035,0.439,0.193,0.439,0.475l-0.439,3.639
			c-0.035,0.293-0.188,0.451-0.457,0.475l-5.66,0.158l-0.756,6.539l5.414-0.193c0.305,0.012,0.457,0.164,0.457,0.457l-0.457,3.585
			C100.291,31.043,100.139,31.189,99.881,31.213z"/>
		<path d="M121.344,16.202l-3.023,26.472c-0.047,0.27-0.199,0.416-0.457,0.439l-3.48,0.193c-0.199,0-0.316-0.111-0.352-0.334
			L110.34,24.2l-1.301,18.544c-0.012,0.281-0.164,0.428-0.457,0.439l-3.621,0.123c-0.258,0-0.387-0.111-0.387-0.334l3.041-26.595
			c0.047-0.246,0.199-0.381,0.457-0.404l3.568-0.193c0.164,0,0.272,0.032,0.325,0.097s0.097,0.173,0.132,0.325l3.568,17.736
			l1.23-17.56c0.012-0.258,0.17-0.393,0.475-0.404l3.498-0.193C121.186,15.78,121.344,15.92,121.344,16.202z"/>
		<path d="M125.299,16.043l11.391-0.404c0.27,0.012,0.404,0.158,0.404,0.439l-0.457,3.604c-0.023,0.176-0.062,0.299-0.114,0.369
			s-0.161,0.111-0.325,0.123l-3.41,0.123l-2.566,22.447c-0.035,0.281-0.188,0.428-0.457,0.439l-3.656,0.123
			c-0.234,0-0.352-0.111-0.352-0.334l2.584-22.535l-3.498,0.105c-0.293-0.012-0.439-0.146-0.439-0.404l0.439-3.656
			C124.854,16.202,125.006,16.055,125.299,16.043z"/>
		<path d="M148.783,31.213l-5.467,0.211l-0.826,7.207l6.732-0.229c0.305,0.012,0.457,0.164,0.457,0.457l-0.457,3.639
			c-0.023,0.246-0.176,0.398-0.457,0.457l-10.811,0.352c-0.258,0-0.387-0.111-0.387-0.334l3.041-26.595
			c0.047-0.246,0.199-0.381,0.457-0.404l9.633-0.334c0.293,0.035,0.439,0.193,0.439,0.475l-0.439,3.639
			c-0.035,0.293-0.188,0.451-0.457,0.475l-5.66,0.158l-0.756,6.539l5.414-0.193c0.305,0.012,0.457,0.164,0.457,0.457l-0.457,3.585
			C149.193,31.043,149.041,31.189,148.783,31.213z"/>
		<path d="M168.436,42.814c0,0.234-0.158,0.352-0.475,0.352l-3.955,0.141c-0.176-0.012-0.305-0.123-0.387-0.334l-4.412-11.18
			l-1.23,10.951c-0.035,0.281-0.182,0.428-0.439,0.439l-3.674,0.123c-0.258-0.023-0.387-0.135-0.387-0.334l3.041-26.455
			c0.023-0.211,0.076-0.354,0.158-0.431s0.703-0.164,1.863-0.264s2.707-0.149,4.641-0.149s3.425,0.513,4.474,1.538
			s1.573,2.347,1.573,3.964s-0.193,3.044-0.58,4.28s-1.025,2.347-1.916,3.331s-2.004,1.716-3.34,2.197l4.992,11.619
			C168.418,42.674,168.436,42.744,168.436,42.814z M160.561,19.77l-0.984,8.736c2.168-0.129,3.662-1.113,4.482-2.953
			c0.445-1.008,0.668-2.03,0.668-3.067s-0.214-1.764-0.642-2.18s-1.046-0.624-1.854-0.624S160.865,19.711,160.561,19.77z"/>
		<path d="M182.656,16.254l2.057,26.472c0,0.27-0.152,0.416-0.457,0.439l-3.674,0.141c-0.246,0-0.369-0.111-0.369-0.334
			l-0.264-5.801l-3.99,0.158l-1.318,5.414c-0.035,0.164-0.082,0.275-0.141,0.334s-0.164,0.094-0.316,0.105l-3.639,0.123
			c-0.234,0-0.352-0.111-0.352-0.334l7.717-26.595c0.082-0.258,0.24-0.393,0.475-0.404l3.867-0.141
			C182.498,15.844,182.633,15.985,182.656,16.254z M179.334,23.497l-2.461,10.089l2.918-0.105L179.334,23.497z"/>
		<path d="M199.742,42.744c-0.059,0.059-0.633,0.188-1.723,0.387s-2.191,0.299-3.305,0.299c-1.828,0-3.229-0.592-4.201-1.775
			s-1.459-2.795-1.459-4.834c0-3.621,0.434-7.828,1.301-12.621c0.457-2.578,1.02-4.389,1.688-5.432
			c0.703-1.09,1.547-1.852,2.531-2.285c1.23-0.539,2.546-0.809,3.946-0.809s2.338,0.038,2.813,0.114s0.741,0.12,0.8,0.132
			c0.152,0.047,0.229,0.193,0.229,0.439l-0.404,3.27c-0.047,0.305-0.164,0.457-0.352,0.457s-0.621-0.05-1.301-0.149
			s-1.23-0.149-1.652-0.149c-1.125,0-1.98,0.284-2.566,0.853s-1.022,1.658-1.31,3.27s-0.565,3.773-0.835,6.486
			c-0.27,2.713-0.404,4.79-0.404,6.231c0,1.699,0.75,2.549,2.25,2.549c0.434,0,1.189-0.072,2.268-0.219s1.693-0.221,1.846-0.221
			c0.246,0,0.369,0.146,0.369,0.439l-0.404,3.27C199.842,42.586,199.801,42.686,199.742,42.744z"/>
		<path d="M205.578,16.043l11.391-0.404c0.27,0.012,0.404,0.158,0.404,0.439l-0.457,3.604c-0.023,0.176-0.062,0.299-0.114,0.369
			s-0.161,0.111-0.325,0.123l-3.41,0.123L210.5,42.744c-0.035,0.281-0.188,0.428-0.457,0.439l-3.656,0.123
			c-0.234,0-0.352-0.111-0.352-0.334l2.584-22.535l-3.498,0.105c-0.293-0.012-0.439-0.146-0.439-0.404l0.439-3.656
			C205.133,16.202,205.285,16.055,205.578,16.043z"/>
		<path d="M252.68,15.854c-0.063-0.251-0.22-0.381-0.47-0.391l-12.192,0.481c0.226,0.828,0.229,1.707-0.08,2.549
			c-0.077,0.209-0.315,1.178-0.411,1.228c-0.035,0.217-0.103,0.435-0.156,0.652l13.62-0.547c0.268-0.042,0.382-0.214,0.348-0.517
			L252.68,15.854z"/>
		<path d="M230.68,42.867l-2.039-26.472c0-0.27,0.158-0.41,0.475-0.422l3.656-0.123c0.258,0,0.387,0.111,0.387,0.334l0.826,19.828
			l4.658-19.617c0.035-0.152,0.079-0.258,0.132-0.316s0.149-0.094,0.29-0.105l3.639-0.141c0.258,0,0.387,0.111,0.387,0.334
			l-7.717,26.578c-0.082,0.281-0.223,0.422-0.422,0.422l-3.885,0.141C230.832,43.295,230.703,43.148,230.68,42.867z"/>
	</g>
</g>
<g id="Layer_2">
	<g id="XMLID_1_">
		<g>
			<path d="M35.25,9c1.89,0.23,1.92,3.24,0,3c-3.07-0.38-6.15-0.47-9.24-0.49c-1.16-0.29-2.31-0.67-3.43-1.16
				c0.76-0.67,1.57-1.28,2.41-1.84C28.42,8.51,31.84,8.58,35.25,9z"/>
			<path d="M30.91,15.52c-4.11-0.58-8.03-1.4-11.67-3.47c-0.86-0.5-0.95-1.66-0.3-2.36c2.32-2.5,5.13-4.31,8.12-5.83
				c2.63-0.13,5.34-0.3,8.02-0.37c-3.45,1.44-7,2.93-10.09,5.02C24.49,8.5,24,8.5,23.5,8.5c-1.93,0-1.93,3,0,3
				c0.84,0,1.67,0,2.51,0.01c3.6,0.9,7.34,1,11.06,1.29c-0.8,1-1.55,2-2.26,3.07C33.49,15.79,32.19,15.7,30.91,15.52z"/>
			<path d="M26.01,11.51c-0.84-0.01-1.67-0.01-2.51-0.01c-1.93,0-1.93-3,0-3c0.5,0,0.99,0,1.49,0.01c-0.84,0.56-1.65,1.17-2.41,1.84
				C23.7,10.84,24.85,11.22,26.01,11.51z"/>
			<path d="M38,19.81c-0.01,0.89,0.24,1.76,0.81,2.55c-3.51,1.87-6.88,4.11-9.9,6.74c0.31-1.69,0.8-3.29,1.47-4.91
				C32.56,22.65,35.38,21.32,38,19.81z"/>
			<path d="M36.65,2.82c-0.52,0.22-1.04,0.44-1.57,0.67c-2.68,0.07-5.39,0.24-8.02,0.37c3.02-1.54,6.22-2.78,9.29-4.15
				c7.29-3.24,14.52-6.59,22.25-8.66c0.75-0.2,1.68,0.25,1.85,1.05c1.21,5.71,0.61,11.38,0.58,17.12c-0.41-0.21-0.82-0.42-1.22-0.61
				c-0.57-0.28-1.12-0.52-1.66-0.74c0.13-4.51,0.39-9.02-0.32-13.47C50.51-3.45,43.67-0.16,36.65,2.82z"/>
			<path d="M46.55,16.51c-1.92,2.66-4.61,4.19-7.48,5.71c-0.09,0.05-0.17,0.09-0.26,0.14c-0.57-0.79-0.82-1.66-0.81-2.55
				c1.67-0.97,3.25-2,4.53-3.21c-1.08-0.22-2.18-0.35-3.29-0.45c0.59-0.97,1.37-1.94,2.27-2.86c1.39,0.24,2.78,0.55,4.14,1.01
				C46.49,14.59,47.14,15.68,46.55,16.51z"/>
			<path d="M42.75,42.5c-0.19,3.64-1.55,6.6-3.55,9.16c2.39-1.061,4.77-2.19,6.85-3.74c-1.21,2.09-2.82,4.12-4.39,6.021
				c-4.05,2.13-8.18,4.029-12.16,6.25c-1.62,1.189-3.22,2.38-4.69,3.619c-0.48,0.41-1.03,0.45-1.51,0.28
				c-0.75,0.55-1.5,1.12-2.24,1.72c-1.48,1.221-3.62-0.89-2.12-2.119c3.64-2.99,7.55-5.601,11.66-7.87c4.28-3.21,8.19-6.87,9-12
				c-5.56-0.391-25.15-0.75-21.18-7.28c2.93-4.82,7.09-8.77,11.6-12.1c0.12-0.09,0.24-0.17,0.36-0.25
				c-0.67,1.62-1.16,3.22-1.47,4.91c-0.8,0.68-1.57,1.39-2.31,2.13c-2.02,2-4.38,4.21-5.59,6.819c0,0.15,3.76,1.19,4.64,1.32
				c5.32,0.77,10.72,0.59,16,1.68C42.27,41.18,42.78,41.87,42.75,42.5z"/>
			<path d="M41.51,13.29c-0.9,0.92-1.68,1.89-2.27,2.86c-1.47-0.13-2.95-0.19-4.43-0.28c0.71-1.07,1.46-2.07,2.26-3.07
				C38.56,12.91,40.04,13.05,41.51,13.29z"/>
			<path d="M46.08,25.9c-0.78-0.17-1.56-0.36-2.34-0.59c-1.54-0.46-2.73-1.02-3.61-1.66c1.6-0.37,2.98-0.58,3.62-0.65
				c7.93-0.89,11.39,3.9,15.93,8.78c-0.28-6.05-1.32-12.03-1.55-18.1c-0.08-1.93-0.04-3.87,0.02-5.81c0.54,0.22,1.09,0.46,1.66,0.74
				c0.4,0.19,0.81,0.4,1.22,0.61c-0.01,0.95-0.01,1.9,0.03,2.85c0.3,7.84,1.83,15.57,1.69,23.43c-0.01,0.75-0.51,1.27-1.11,1.42
				c-1.44-3.28-3.93-6.52-6.95-8.36c-1.4-0.85-2.89-1.37-4.43-1.76C48.93,26.19,47.52,25.93,46.08,25.9z"/>
			<path d="M43.78,32.8c2.63,1.021,5.89,2.141,7.58,4.561c3.74,5.31,0.12,10.8-4.69,13.75c-1.65,1.01-3.32,1.939-5.01,2.83
				c1.57-1.9,3.18-3.931,4.39-6.021c0.01-0.01,0.03-0.02,0.04-0.03c2.34-1.76,5.45-5.08,3.23-8.239c-0.32-0.46-0.7-0.87-1.11-1.23
				c-0.03-0.439-0.1-0.84-0.21-1.17c-0.71-2.15-2.6-1.97-5-2c-0.41-0.01-0.8,0-1.19,0.01c-3.09-1.12-6.25-2.24-8.54-4.68
				c-3.52-3.73,2.47-5.92,6.86-6.93c0.88,0.64,2.07,1.2,3.61,1.66c0.78,0.23,1.56,0.42,2.34,0.59c-2.35-0.07-4.79,0.47-7.15,1.13
				c-2.6,0.72-4.38,1.65-0.92,3.42C39.87,31.41,41.84,32.04,43.78,32.8z"/>
			<path d="M48.21,38.42c-1.47-1.3-3.41-2.06-5.22-2.729c-0.39-0.15-0.78-0.29-1.18-0.431c0.39-0.01,0.78-0.02,1.19-0.01
				c2.4,0.03,4.29-0.15,5,2C48.11,37.58,48.18,37.98,48.21,38.42z"/>
			<path d="M54.69,28.56c3.02,1.84,5.51,5.08,6.95,8.36c-0.48,0.13-1.03,0.03-1.45-0.36c-2.79-2.569-4.81-5.97-7.73-8.379
				c-0.7-0.58-1.44-1.04-2.2-1.38C51.8,27.19,53.29,27.71,54.69,28.56z"/>
		</g>
		<g>
		</g>
	</g>
	<rect x="68.75" y="46.75" fill="none" width="201.75" height="9.25"/>
	<text transform="matrix(1 0 0 1 68.75 53.3594)" font-family="'ContrailOne-Regular'" font-size="8">a spentronics division</text>
</g>
</svg>
